<?xml version="1.0" encoding="utf-8" standalone="no"?>
<!DOCTYPE svg PUBLIC "-//W3C//DTD SVG 1.1//EN"
  "http://www.w3.org/Graphics/SVG/1.1/DTD/svg11.dtd">
<svg xmlns:xlink="http://www.w3.org/1999/xlink" width="720pt" height="316.8pt" viewBox="0 0 720 316.8" xmlns="http://www.w3.org/2000/svg" version="1.1">
 <metadata>
  <rdf:RDF xmlns:dc="http://purl.org/dc/elements/1.1/" xmlns:cc="http://creativecommons.org/ns#" xmlns:rdf="http://www.w3.org/1999/02/22-rdf-syntax-ns#">
   <cc:Work>
    <dc:type rdf:resource="http://purl.org/dc/dcmitype/StillImage"/>
    <dc:format>image/svg+xml</dc:format>
    <dc:creator>
     <cc:Agent>
      <dc:title>Matplotlib v3.11.2, https://matplotlib.org/</dc:title>
     </cc:Agent>
    </dc:creator>
   </cc:Work>
  </rdf:RDF>
 </metadata>
 <defs>
  <style type="text/css">*{stroke-linejoin: round; stroke-linecap: butt}</style>
 </defs>
 <g id="figure_1">
  <g id="patch_1">
   <path d="M 0 316.8 
L 720 316.8 
L 720 0 
L 0 0 
L 0 316.8 
z
" style="fill: none; opacity: 0"/>
  </g>
  <g id="patch_2">
   <path d="M 29.52 312.9984 
L 690.48 312.9984 
Q 715.68 312.9984 715.68 287.7984 
L 715.68 29.0016 
Q 715.68 3.8016 690.48 3.8016 
L 29.52 3.8016 
Q 4.32 3.8016 4.32 29.0016 
L 4.32 287.7984 
Q 4.32 312.9984 29.52 312.9984 
z
" style="fill: #ffffff; stroke: #d1d9e0; stroke-width: 1.5; stroke-linejoin: miter"/>
  </g>
  <g id="patch_3">
   <path d="M 28.8 161.568 
L 35.28 161.568 
L 35.28 57.024 
L 28.8 57.024 
z
" style="fill: #eb6834; stroke: #eb6834; stroke-linejoin: miter"/>
  </g>
  <g id="patch_4">
   <path d="M 367.2 161.568 
L 373.68 161.568 
L 373.68 57.024 
L 367.2 57.024 
z
" style="fill: #eb6834; stroke: #eb6834; stroke-linejoin: miter"/>
  </g>
  <g id="patch_5">
   <path d="M 28.8 300.96 
L 35.28 300.96 
L 35.28 196.416 
L 28.8 196.416 
z
" style="fill: #eb6834; stroke: #eb6834; stroke-linejoin: miter"/>
  </g>
  <g id="patch_6">
   <path d="M 367.2 300.96 
L 373.68 300.96 
L 373.68 196.416 
L 367.2 196.416 
z
" style="fill: #eb6834; stroke: #eb6834; stroke-linejoin: miter"/>
  </g>
  <g id="text_1">
   <!-- 106 -->
   <g style="fill: #1f2328" transform="translate(50.4 106.128) scale(0.48 -0.48)">
    <defs>
     <path id="DejaVuSans-Bold-14" d="M 750 831 
L 1813 831 
L 1813 3847 
L 722 3622 
L 722 4441 
L 1806 4666 
L 2950 4666 
L 2950 831 
L 4013 831 
L 4013 0 
L 750 0 
L 750 831 
z
" transform="scale(0.015625)"/>
     <path id="DejaVuSans-Bold-13" d="M 2944 2338 
Q 2944 3213 2780 3570 
Q 2616 3928 2228 3928 
Q 1841 3928 1675 3570 
Q 1509 3213 1509 2338 
Q 1509 1453 1675 1090 
Q 1841 728 2228 728 
Q 2613 728 2778 1090 
Q 2944 1453 2944 2338 
z
M 4147 2328 
Q 4147 1169 3647 539 
Q 3147 -91 2228 -91 
Q 1306 -91 806 539 
Q 306 1169 306 2328 
Q 306 3491 806 4120 
Q 1306 4750 2228 4750 
Q 3147 4750 3647 4120 
Q 4147 3491 4147 2328 
z
" transform="scale(0.015625)"/>
     <path id="DejaVuSans-Bold-19" d="M 2316 2303 
Q 2000 2303 1842 2098 
Q 1684 1894 1684 1484 
Q 1684 1075 1842 870 
Q 2000 666 2316 666 
Q 2634 666 2792 870 
Q 2950 1075 2950 1484 
Q 2950 1894 2792 2098 
Q 2634 2303 2316 2303 
z
M 3803 4544 
L 3803 3681 
Q 3506 3822 3243 3889 
Q 2981 3956 2731 3956 
Q 2194 3956 1894 3657 
Q 1594 3359 1544 2772 
Q 1750 2925 1990 3001 
Q 2231 3078 2516 3078 
Q 3231 3078 3670 2659 
Q 4109 2241 4109 1563 
Q 4109 813 3618 361 
Q 3128 -91 2303 -91 
Q 1394 -91 895 523 
Q 397 1138 397 2266 
Q 397 3422 980 4083 
Q 1563 4744 2578 4744 
Q 2900 4744 3203 4694 
Q 3506 4644 3803 4544 
z
" transform="scale(0.015625)"/>
    </defs>
    <use xlink:href="#DejaVuSans-Bold-14"/>
    <use xlink:href="#DejaVuSans-Bold-13" transform="translate(69.578125 0)"/>
    <use xlink:href="#DejaVuSans-Bold-19" transform="translate(139.15625 0)"/>
   </g>
  </g>
  <g id="text_2">
   <!-- tok/s -->
   <g style="fill: #1f2328" transform="translate(160.56 106.128) scale(0.21 -0.21)">
    <defs>
     <path id="DejaVuSans-57" d="M 1172 4494 
L 1172 3500 
L 2356 3500 
L 2356 3053 
L 1172 3053 
L 1172 1153 
Q 1172 725 1289 603 
Q 1406 481 1766 481 
L 2356 481 
L 2356 0 
L 1766 0 
Q 1100 0 847 248 
Q 594 497 594 1153 
L 594 3053 
L 172 3053 
L 172 3500 
L 594 3500 
L 594 4494 
L 1172 4494 
z
" transform="scale(0.015625)"/>
     <path id="DejaVuSans-52" d="M 1959 3097 
Q 1497 3097 1228 2736 
Q 959 2375 959 1747 
Q 959 1119 1226 758 
Q 1494 397 1959 397 
Q 2419 397 2687 759 
Q 2956 1122 2956 1747 
Q 2956 2369 2687 2733 
Q 2419 3097 1959 3097 
z
M 1959 3584 
Q 2709 3584 3137 3096 
Q 3566 2609 3566 1747 
Q 3566 888 3137 398 
Q 2709 -91 1959 -91 
Q 1206 -91 779 398 
Q 353 888 353 1747 
Q 353 2609 779 3096 
Q 1206 3584 1959 3584 
z
" transform="scale(0.015625)"/>
     <path id="DejaVuSans-4e" d="M 581 4863 
L 1159 4863 
L 1159 1991 
L 2875 3500 
L 3609 3500 
L 1753 1863 
L 3688 0 
L 2938 0 
L 1159 1709 
L 1159 0 
L 581 0 
L 581 4863 
z
" transform="scale(0.015625)"/>
     <path id="DejaVuSans-12" d="M 1625 4666 
L 2156 4666 
L 531 -594 
L 0 -594 
L 1625 4666 
z
" transform="scale(0.015625)"/>
     <path id="DejaVuSans-56" d="M 2834 3397 
L 2834 2853 
Q 2591 2978 2328 3040 
Q 2066 3103 1784 3103 
Q 1356 3103 1142 2972 
Q 928 2841 928 2578 
Q 928 2378 1081 2264 
Q 1234 2150 1697 2047 
L 1894 2003 
Q 2506 1872 2764 1633 
Q 3022 1394 3022 966 
Q 3022 478 2636 193 
Q 2250 -91 1575 -91 
Q 1294 -91 989 -36 
Q 684 19 347 128 
L 347 722 
Q 666 556 975 473 
Q 1284 391 1588 391 
Q 1994 391 2212 530 
Q 2431 669 2431 922 
Q 2431 1156 2273 1281 
Q 2116 1406 1581 1522 
L 1381 1569 
Q 847 1681 609 1914 
Q 372 2147 372 2553 
Q 372 3047 722 3315 
Q 1072 3584 1716 3584 
Q 2034 3584 2315 3537 
Q 2597 3491 2834 3397 
z
" transform="scale(0.015625)"/>
    </defs>
    <use xlink:href="#DejaVuSans-57"/>
    <use xlink:href="#DejaVuSans-52" transform="translate(39.203125 0)"/>
    <use xlink:href="#DejaVuSans-4e" transform="translate(100.390625 0)"/>
    <use xlink:href="#DejaVuSans-12" transform="translate(158.296875 0)"/>
    <use xlink:href="#DejaVuSans-56" transform="translate(191.984375 0)"/>
   </g>
  </g>
  <g id="text_3">
   <!-- coding, one chat -->
   <g style="fill: #1f2328" transform="translate(50.4 136.405031) scale(0.19 -0.19)">
    <defs>
     <path id="DejaVuSans-46" d="M 3122 3366 
L 3122 2828 
Q 2878 2963 2633 3030 
Q 2388 3097 2138 3097 
Q 1578 3097 1268 2742 
Q 959 2388 959 1747 
Q 959 1106 1268 751 
Q 1578 397 2138 397 
Q 2388 397 2633 464 
Q 2878 531 3122 666 
L 3122 134 
Q 2881 22 2623 -34 
Q 2366 -91 2075 -91 
Q 1284 -91 818 406 
Q 353 903 353 1747 
Q 353 2603 823 3093 
Q 1294 3584 2113 3584 
Q 2378 3584 2631 3529 
Q 2884 3475 3122 3366 
z
" transform="scale(0.015625)"/>
     <path id="DejaVuSans-47" d="M 2906 2969 
L 2906 4863 
L 3481 4863 
L 3481 0 
L 2906 0 
L 2906 525 
Q 2725 213 2448 61 
Q 2172 -91 1784 -91 
Q 1150 -91 751 415 
Q 353 922 353 1747 
Q 353 2572 751 3078 
Q 1150 3584 1784 3584 
Q 2172 3584 2448 3432 
Q 2725 3281 2906 2969 
z
M 947 1747 
Q 947 1113 1208 752 
Q 1469 391 1925 391 
Q 2381 391 2643 752 
Q 2906 1113 2906 1747 
Q 2906 2381 2643 2742 
Q 2381 3103 1925 3103 
Q 1469 3103 1208 2742 
Q 947 2381 947 1747 
z
" transform="scale(0.015625)"/>
     <path id="DejaVuSans-4c" d="M 603 3500 
L 1178 3500 
L 1178 0 
L 603 0 
L 603 3500 
z
M 603 4863 
L 1178 4863 
L 1178 4134 
L 603 4134 
L 603 4863 
z
" transform="scale(0.015625)"/>
     <path id="DejaVuSans-51" d="M 3513 2113 
L 3513 0 
L 2938 0 
L 2938 2094 
Q 2938 2591 2744 2837 
Q 2550 3084 2163 3084 
Q 1697 3084 1428 2787 
Q 1159 2491 1159 1978 
L 1159 0 
L 581 0 
L 581 3500 
L 1159 3500 
L 1159 2956 
Q 1366 3272 1645 3428 
Q 1925 3584 2291 3584 
Q 2894 3584 3203 3211 
Q 3513 2838 3513 2113 
z
" transform="scale(0.015625)"/>
     <path id="DejaVuSans-4a" d="M 2906 1791 
Q 2906 2416 2648 2759 
Q 2391 3103 1925 3103 
Q 1463 3103 1205 2759 
Q 947 2416 947 1791 
Q 947 1169 1205 825 
Q 1463 481 1925 481 
Q 2391 481 2648 825 
Q 2906 1169 2906 1791 
z
M 3481 434 
Q 3481 -459 3084 -895 
Q 2688 -1331 1869 -1331 
Q 1566 -1331 1297 -1286 
Q 1028 -1241 775 -1147 
L 775 -588 
Q 1028 -725 1275 -790 
Q 1522 -856 1778 -856 
Q 2344 -856 2625 -561 
Q 2906 -266 2906 331 
L 2906 616 
Q 2728 306 2450 153 
Q 2172 0 1784 0 
Q 1141 0 747 490 
Q 353 981 353 1791 
Q 353 2603 747 3093 
Q 1141 3584 1784 3584 
Q 2172 3584 2450 3431 
Q 2728 3278 2906 2969 
L 2906 3500 
L 3481 3500 
L 3481 434 
z
" transform="scale(0.015625)"/>
     <path id="DejaVuSans-f" d="M 750 794 
L 1409 794 
L 1409 256 
L 897 -744 
L 494 -744 
L 750 256 
L 750 794 
z
" transform="scale(0.015625)"/>
     <path id="DejaVuSans-3" transform="scale(0.015625)"/>
     <path id="DejaVuSans-48" d="M 3597 1894 
L 3597 1613 
L 953 1613 
Q 991 1019 1311 708 
Q 1631 397 2203 397 
Q 2534 397 2845 478 
Q 3156 559 3463 722 
L 3463 178 
Q 3153 47 2828 -22 
Q 2503 -91 2169 -91 
Q 1331 -91 842 396 
Q 353 884 353 1716 
Q 353 2575 817 3079 
Q 1281 3584 2069 3584 
Q 2775 3584 3186 3129 
Q 3597 2675 3597 1894 
z
M 3022 2063 
Q 3016 2534 2758 2815 
Q 2500 3097 2075 3097 
Q 1594 3097 1305 2825 
Q 1016 2553 972 2059 
L 3022 2063 
z
" transform="scale(0.015625)"/>
     <path id="DejaVuSans-4b" d="M 3513 2113 
L 3513 0 
L 2938 0 
L 2938 2094 
Q 2938 2591 2744 2837 
Q 2550 3084 2163 3084 
Q 1697 3084 1428 2787 
Q 1159 2491 1159 1978 
L 1159 0 
L 581 0 
L 581 4863 
L 1159 4863 
L 1159 2956 
Q 1366 3272 1645 3428 
Q 1925 3584 2291 3584 
Q 2894 3584 3203 3211 
Q 3513 2838 3513 2113 
z
" transform="scale(0.015625)"/>
     <path id="DejaVuSans-44" d="M 2194 1759 
Q 1497 1759 1228 1600 
Q 959 1441 959 1056 
Q 959 750 1161 570 
Q 1363 391 1709 391 
Q 2188 391 2477 730 
Q 2766 1069 2766 1631 
L 2766 1759 
L 2194 1759 
z
M 3341 1997 
L 3341 0 
L 2766 0 
L 2766 531 
Q 2569 213 2275 61 
Q 1981 -91 1556 -91 
Q 1019 -91 701 211 
Q 384 513 384 1019 
Q 384 1609 779 1909 
Q 1175 2209 1959 2209 
L 2766 2209 
L 2766 2266 
Q 2766 2663 2505 2880 
Q 2244 3097 1772 3097 
Q 1472 3097 1187 3025 
Q 903 2953 641 2809 
L 641 3341 
Q 956 3463 1253 3523 
Q 1550 3584 1831 3584 
Q 2591 3584 2966 3190 
Q 3341 2797 3341 1997 
z
" transform="scale(0.015625)"/>
    </defs>
    <use xlink:href="#DejaVuSans-46"/>
    <use xlink:href="#DejaVuSans-52" transform="translate(54.984375 0)"/>
    <use xlink:href="#DejaVuSans-47" transform="translate(116.171875 0)"/>
    <use xlink:href="#DejaVuSans-4c" transform="translate(179.65625 0)"/>
    <use xlink:href="#DejaVuSans-51" transform="translate(207.4375 0)"/>
    <use xlink:href="#DejaVuSans-4a" transform="translate(270.8125 0)"/>
    <use xlink:href="#DejaVuSans-f" transform="translate(334.296875 0)"/>
    <use xlink:href="#DejaVuSans-3" transform="translate(366.078125 0)"/>
    <use xlink:href="#DejaVuSans-52" transform="translate(397.859375 0)"/>
    <use xlink:href="#DejaVuSans-51" transform="translate(459.046875 0)"/>
    <use xlink:href="#DejaVuSans-48" transform="translate(522.421875 0)"/>
    <use xlink:href="#DejaVuSans-3" transform="translate(583.953125 0)"/>
    <use xlink:href="#DejaVuSans-46" transform="translate(615.734375 0)"/>
    <use xlink:href="#DejaVuSans-4b" transform="translate(670.71875 0)"/>
    <use xlink:href="#DejaVuSans-44" transform="translate(734.09375 0)"/>
    <use xlink:href="#DejaVuSans-57" transform="translate(795.375 0)"/>
   </g>
  </g>
  <g id="text_4">
   <!-- 36 coding prompts, T=0, thinking off -->
   <g style="fill: #424a53" transform="translate(50.4 153.1335) scale(0.16 -0.16)">
    <defs>
     <path id="DejaVuSans-16" d="M 2597 2516 
Q 3050 2419 3304 2112 
Q 3559 1806 3559 1356 
Q 3559 666 3084 287 
Q 2609 -91 1734 -91 
Q 1441 -91 1130 -33 
Q 819 25 488 141 
L 488 750 
Q 750 597 1062 519 
Q 1375 441 1716 441 
Q 2309 441 2620 675 
Q 2931 909 2931 1356 
Q 2931 1769 2642 2001 
Q 2353 2234 1838 2234 
L 1294 2234 
L 1294 2753 
L 1863 2753 
Q 2328 2753 2575 2939 
Q 2822 3125 2822 3475 
Q 2822 3834 2567 4026 
Q 2313 4219 1838 4219 
Q 1578 4219 1281 4162 
Q 984 4106 628 3988 
L 628 4550 
Q 988 4650 1302 4700 
Q 1616 4750 1894 4750 
Q 2613 4750 3031 4423 
Q 3450 4097 3450 3541 
Q 3450 3153 3228 2886 
Q 3006 2619 2597 2516 
z
" transform="scale(0.015625)"/>
     <path id="DejaVuSans-19" d="M 2113 2584 
Q 1688 2584 1439 2293 
Q 1191 2003 1191 1497 
Q 1191 994 1439 701 
Q 1688 409 2113 409 
Q 2538 409 2786 701 
Q 3034 994 3034 1497 
Q 3034 2003 2786 2293 
Q 2538 2584 2113 2584 
z
M 3366 4563 
L 3366 3988 
Q 3128 4100 2886 4159 
Q 2644 4219 2406 4219 
Q 1781 4219 1451 3797 
Q 1122 3375 1075 2522 
Q 1259 2794 1537 2939 
Q 1816 3084 2150 3084 
Q 2853 3084 3261 2657 
Q 3669 2231 3669 1497 
Q 3669 778 3244 343 
Q 2819 -91 2113 -91 
Q 1303 -91 875 529 
Q 447 1150 447 2328 
Q 447 3434 972 4092 
Q 1497 4750 2381 4750 
Q 2619 4750 2861 4703 
Q 3103 4656 3366 4563 
z
" transform="scale(0.015625)"/>
     <path id="DejaVuSans-53" d="M 1159 525 
L 1159 -1331 
L 581 -1331 
L 581 3500 
L 1159 3500 
L 1159 2969 
Q 1341 3281 1617 3432 
Q 1894 3584 2278 3584 
Q 2916 3584 3314 3078 
Q 3713 2572 3713 1747 
Q 3713 922 3314 415 
Q 2916 -91 2278 -91 
Q 1894 -91 1617 61 
Q 1341 213 1159 525 
z
M 3116 1747 
Q 3116 2381 2855 2742 
Q 2594 3103 2138 3103 
Q 1681 3103 1420 2742 
Q 1159 2381 1159 1747 
Q 1159 1113 1420 752 
Q 1681 391 2138 391 
Q 2594 391 2855 752 
Q 3116 1113 3116 1747 
z
" transform="scale(0.015625)"/>
     <path id="DejaVuSans-55" d="M 2631 2963 
Q 2534 3019 2420 3045 
Q 2306 3072 2169 3072 
Q 1681 3072 1420 2755 
Q 1159 2438 1159 1844 
L 1159 0 
L 581 0 
L 581 3500 
L 1159 3500 
L 1159 2956 
Q 1341 3275 1631 3429 
Q 1922 3584 2338 3584 
Q 2397 3584 2469 3576 
Q 2541 3569 2628 3553 
L 2631 2963 
z
" transform="scale(0.015625)"/>
     <path id="DejaVuSans-50" d="M 3328 2828 
Q 3544 3216 3844 3400 
Q 4144 3584 4550 3584 
Q 5097 3584 5394 3201 
Q 5691 2819 5691 2113 
L 5691 0 
L 5113 0 
L 5113 2094 
Q 5113 2597 4934 2840 
Q 4756 3084 4391 3084 
Q 3944 3084 3684 2787 
Q 3425 2491 3425 1978 
L 3425 0 
L 2847 0 
L 2847 2094 
Q 2847 2600 2669 2842 
Q 2491 3084 2119 3084 
Q 1678 3084 1418 2786 
Q 1159 2488 1159 1978 
L 1159 0 
L 581 0 
L 581 3500 
L 1159 3500 
L 1159 2956 
Q 1356 3278 1631 3431 
Q 1906 3584 2284 3584 
Q 2666 3584 2933 3390 
Q 3200 3197 3328 2828 
z
" transform="scale(0.015625)"/>
     <path id="DejaVuSans-37" d="M -19 4666 
L 3928 4666 
L 3928 4134 
L 2272 4134 
L 2272 0 
L 1638 0 
L 1638 4134 
L -19 4134 
L -19 4666 
z
" transform="scale(0.015625)"/>
     <path id="DejaVuSans-20" d="M 678 2906 
L 4684 2906 
L 4684 2381 
L 678 2381 
L 678 2906 
z
M 678 1631 
L 4684 1631 
L 4684 1100 
L 678 1100 
L 678 1631 
z
" transform="scale(0.015625)"/>
     <path id="DejaVuSans-13" d="M 2034 4250 
Q 1547 4250 1301 3770 
Q 1056 3291 1056 2328 
Q 1056 1369 1301 889 
Q 1547 409 2034 409 
Q 2525 409 2770 889 
Q 3016 1369 3016 2328 
Q 3016 3291 2770 3770 
Q 2525 4250 2034 4250 
z
M 2034 4750 
Q 2819 4750 3233 4129 
Q 3647 3509 3647 2328 
Q 3647 1150 3233 529 
Q 2819 -91 2034 -91 
Q 1250 -91 836 529 
Q 422 1150 422 2328 
Q 422 3509 836 4129 
Q 1250 4750 2034 4750 
z
" transform="scale(0.015625)"/>
     <path id="DejaVuSans-13ae" d="M 4531 4863 
L 4531 4384 
L 3981 4384 
Q 3672 4384 3551 4259 
Q 3431 4134 3431 3809 
L 3431 3500 
L 4378 3500 
L 4378 3053 
L 3431 3053 
L 3431 0 
L 2853 0 
L 2853 3053 
L 1275 3053 
L 1275 0 
L 697 0 
L 697 3053 
L 147 3053 
L 147 3500 
L 697 3500 
L 697 3744 
Q 697 4328 969 4595 
Q 1241 4863 1831 4863 
L 2375 4863 
L 2375 4384 
L 1825 4384 
Q 1516 4384 1394 4259 
Q 1275 4134 1275 3809 
L 1275 3500 
L 2853 3500 
L 2853 3744 
Q 2853 4328 3125 4595 
Q 3397 4863 3988 4863 
L 4531 4863 
z
" transform="scale(0.015625)"/>
    </defs>
    <use xlink:href="#DejaVuSans-16"/>
    <use xlink:href="#DejaVuSans-19" transform="translate(63.625 0)"/>
    <use xlink:href="#DejaVuSans-3" transform="translate(127.25 0)"/>
    <use xlink:href="#DejaVuSans-46" transform="translate(159.03125 0)"/>
    <use xlink:href="#DejaVuSans-52" transform="translate(214.015625 0)"/>
    <use xlink:href="#DejaVuSans-47" transform="translate(275.203125 0)"/>
    <use xlink:href="#DejaVuSans-4c" transform="translate(338.6875 0)"/>
    <use xlink:href="#DejaVuSans-51" transform="translate(366.46875 0)"/>
    <use xlink:href="#DejaVuSans-4a" transform="translate(429.84375 0)"/>
    <use xlink:href="#DejaVuSans-3" transform="translate(493.328125 0)"/>
    <use xlink:href="#DejaVuSans-53" transform="translate(525.109375 0)"/>
    <use xlink:href="#DejaVuSans-55" transform="translate(588.59375 0)"/>
    <use xlink:href="#DejaVuSans-52" transform="translate(627.5 0)"/>
    <use xlink:href="#DejaVuSans-50" transform="translate(688.6875 0)"/>
    <use xlink:href="#DejaVuSans-53" transform="translate(786.09375 0)"/>
    <use xlink:href="#DejaVuSans-57" transform="translate(849.578125 0)"/>
    <use xlink:href="#DejaVuSans-56" transform="translate(888.78125 0)"/>
    <use xlink:href="#DejaVuSans-f" transform="translate(940.875 0)"/>
    <use xlink:href="#DejaVuSans-3" transform="translate(972.65625 0)"/>
    <use xlink:href="#DejaVuSans-37" transform="translate(1004.4375 0)"/>
    <use xlink:href="#DejaVuSans-20" transform="translate(1065.515625 0)"/>
    <use xlink:href="#DejaVuSans-13" transform="translate(1149.3125 0)"/>
    <use xlink:href="#DejaVuSans-f" transform="translate(1212.9375 0)"/>
    <use xlink:href="#DejaVuSans-3" transform="translate(1244.71875 0)"/>
    <use xlink:href="#DejaVuSans-57" transform="translate(1276.5 0)"/>
    <use xlink:href="#DejaVuSans-4b" transform="translate(1315.703125 0)"/>
    <use xlink:href="#DejaVuSans-4c" transform="translate(1379.078125 0)"/>
    <use xlink:href="#DejaVuSans-51" transform="translate(1406.859375 0)"/>
    <use xlink:href="#DejaVuSans-4e" transform="translate(1470.234375 0)"/>
    <use xlink:href="#DejaVuSans-4c" transform="translate(1528.140625 0)"/>
    <use xlink:href="#DejaVuSans-51" transform="translate(1555.921875 0)"/>
    <use xlink:href="#DejaVuSans-4a" transform="translate(1619.296875 0)"/>
    <use xlink:href="#DejaVuSans-3" transform="translate(1682.78125 0)"/>
    <use xlink:href="#DejaVuSans-52" transform="translate(1714.5625 0)"/>
    <use xlink:href="#DejaVuSans-13ae" transform="translate(1775.75 0)"/>
   </g>
  </g>
  <g id="text_5">
   <!-- older release v1.4.0 (shipped v2.0.0) -->
   <g style="fill: #424a53" transform="translate(50.4 171.5079) scale(0.16 -0.16)">
    <defs>
     <path id="DejaVuSans-4f" d="M 603 4863 
L 1178 4863 
L 1178 0 
L 603 0 
L 603 4863 
z
" transform="scale(0.015625)"/>
     <path id="DejaVuSans-59" d="M 191 3500 
L 800 3500 
L 1894 563 
L 2988 3500 
L 3597 3500 
L 2284 0 
L 1503 0 
L 191 3500 
z
" transform="scale(0.015625)"/>
     <path id="DejaVuSans-14" d="M 794 531 
L 1825 531 
L 1825 4091 
L 703 3866 
L 703 4441 
L 1819 4666 
L 2450 4666 
L 2450 531 
L 3481 531 
L 3481 0 
L 794 0 
L 794 531 
z
" transform="scale(0.015625)"/>
     <path id="DejaVuSans-11" d="M 684 794 
L 1344 794 
L 1344 0 
L 684 0 
L 684 794 
z
" transform="scale(0.015625)"/>
     <path id="DejaVuSans-17" d="M 2419 4116 
L 825 1625 
L 2419 1625 
L 2419 4116 
z
M 2253 4666 
L 3047 4666 
L 3047 1625 
L 3713 1625 
L 3713 1100 
L 3047 1100 
L 3047 0 
L 2419 0 
L 2419 1100 
L 313 1100 
L 313 1709 
L 2253 4666 
z
" transform="scale(0.015625)"/>
     <path id="DejaVuSans-b" d="M 1984 4856 
Q 1566 4138 1362 3434 
Q 1159 2731 1159 2009 
Q 1159 1288 1364 580 
Q 1569 -128 1984 -844 
L 1484 -844 
Q 1016 -109 783 600 
Q 550 1309 550 2009 
Q 550 2706 781 3412 
Q 1013 4119 1484 4856 
L 1984 4856 
z
" transform="scale(0.015625)"/>
     <path id="DejaVuSans-15" d="M 1228 531 
L 3431 531 
L 3431 0 
L 469 0 
L 469 531 
Q 828 903 1448 1529 
Q 2069 2156 2228 2338 
Q 2531 2678 2651 2914 
Q 2772 3150 2772 3378 
Q 2772 3750 2511 3984 
Q 2250 4219 1831 4219 
Q 1534 4219 1204 4116 
Q 875 4013 500 3803 
L 500 4441 
Q 881 4594 1212 4672 
Q 1544 4750 1819 4750 
Q 2544 4750 2975 4387 
Q 3406 4025 3406 3419 
Q 3406 3131 3298 2873 
Q 3191 2616 2906 2266 
Q 2828 2175 2409 1742 
Q 1991 1309 1228 531 
z
" transform="scale(0.015625)"/>
     <path id="DejaVuSans-c" d="M 513 4856 
L 1013 4856 
Q 1481 4119 1714 3412 
Q 1947 2706 1947 2009 
Q 1947 1309 1714 600 
Q 1481 -109 1013 -844 
L 513 -844 
Q 928 -128 1133 580 
Q 1338 1288 1338 2009 
Q 1338 2731 1133 3434 
Q 928 4138 513 4856 
z
" transform="scale(0.015625)"/>
    </defs>
    <use xlink:href="#DejaVuSans-52"/>
    <use xlink:href="#DejaVuSans-4f" transform="translate(61.1875 0)"/>
    <use xlink:href="#DejaVuSans-47" transform="translate(88.96875 0)"/>
    <use xlink:href="#DejaVuSans-48" transform="translate(152.453125 0)"/>
    <use xlink:href="#DejaVuSans-55" transform="translate(213.984375 0)"/>
    <use xlink:href="#DejaVuSans-3" transform="translate(255.09375 0)"/>
    <use xlink:href="#DejaVuSans-55" transform="translate(286.875 0)"/>
    <use xlink:href="#DejaVuSans-48" transform="translate(325.78125 0)"/>
    <use xlink:href="#DejaVuSans-4f" transform="translate(387.3125 0)"/>
    <use xlink:href="#DejaVuSans-48" transform="translate(415.09375 0)"/>
    <use xlink:href="#DejaVuSans-44" transform="translate(476.625 0)"/>
    <use xlink:href="#DejaVuSans-56" transform="translate(537.90625 0)"/>
    <use xlink:href="#DejaVuSans-48" transform="translate(590 0)"/>
    <use xlink:href="#DejaVuSans-3" transform="translate(651.53125 0)"/>
    <use xlink:href="#DejaVuSans-59" transform="translate(683.3125 0)"/>
    <use xlink:href="#DejaVuSans-14" transform="translate(742.5 0)"/>
    <use xlink:href="#DejaVuSans-11" transform="translate(806.125 0)"/>
    <use xlink:href="#DejaVuSans-17" transform="translate(837.90625 0)"/>
    <use xlink:href="#DejaVuSans-11" transform="translate(901.53125 0)"/>
    <use xlink:href="#DejaVuSans-13" transform="translate(933.3125 0)"/>
    <use xlink:href="#DejaVuSans-3" transform="translate(996.9375 0)"/>
    <use xlink:href="#DejaVuSans-b" transform="translate(1028.71875 0)"/>
    <use xlink:href="#DejaVuSans-56" transform="translate(1067.734375 0)"/>
    <use xlink:href="#DejaVuSans-4b" transform="translate(1119.828125 0)"/>
    <use xlink:href="#DejaVuSans-4c" transform="translate(1183.203125 0)"/>
    <use xlink:href="#DejaVuSans-53" transform="translate(1210.984375 0)"/>
    <use xlink:href="#DejaVuSans-53" transform="translate(1274.46875 0)"/>
    <use xlink:href="#DejaVuSans-48" transform="translate(1337.953125 0)"/>
    <use xlink:href="#DejaVuSans-47" transform="translate(1399.484375 0)"/>
    <use xlink:href="#DejaVuSans-3" transform="translate(1462.96875 0)"/>
    <use xlink:href="#DejaVuSans-59" transform="translate(1494.75 0)"/>
    <use xlink:href="#DejaVuSans-15" transform="translate(1553.9375 0)"/>
    <use xlink:href="#DejaVuSans-11" transform="translate(1617.5625 0)"/>
    <use xlink:href="#DejaVuSans-13" transform="translate(1649.34375 0)"/>
    <use xlink:href="#DejaVuSans-11" transform="translate(1712.96875 0)"/>
    <use xlink:href="#DejaVuSans-13" transform="translate(1744.75 0)"/>
    <use xlink:href="#DejaVuSans-c" transform="translate(1808.375 0)"/>
   </g>
  </g>
  <g id="text_6">
   <!-- 89 -->
   <g style="fill: #1f2328" transform="translate(388.8 106.128) scale(0.48 -0.48)">
    <defs>
     <path id="DejaVuSans-Bold-1b" d="M 2228 2088 
Q 1891 2088 1709 1903 
Q 1528 1719 1528 1375 
Q 1528 1031 1709 848 
Q 1891 666 2228 666 
Q 2563 666 2741 848 
Q 2919 1031 2919 1375 
Q 2919 1722 2741 1905 
Q 2563 2088 2228 2088 
z
M 1350 2484 
Q 925 2613 709 2878 
Q 494 3144 494 3541 
Q 494 4131 934 4440 
Q 1375 4750 2228 4750 
Q 3075 4750 3515 4442 
Q 3956 4134 3956 3541 
Q 3956 3144 3739 2878 
Q 3522 2613 3097 2484 
Q 3572 2353 3814 2058 
Q 4056 1763 4056 1313 
Q 4056 619 3595 264 
Q 3134 -91 2228 -91 
Q 1319 -91 855 264 
Q 391 619 391 1313 
Q 391 1763 633 2058 
Q 875 2353 1350 2484 
z
M 1631 3419 
Q 1631 3141 1786 2991 
Q 1941 2841 2228 2841 
Q 2509 2841 2662 2991 
Q 2816 3141 2816 3419 
Q 2816 3697 2662 3845 
Q 2509 3994 2228 3994 
Q 1941 3994 1786 3844 
Q 1631 3694 1631 3419 
z
" transform="scale(0.015625)"/>
     <path id="DejaVuSans-Bold-1c" d="M 641 103 
L 641 966 
Q 928 831 1190 764 
Q 1453 697 1709 697 
Q 2247 697 2547 995 
Q 2847 1294 2900 1881 
Q 2688 1725 2447 1647 
Q 2206 1569 1925 1569 
Q 1209 1569 770 1986 
Q 331 2403 331 3084 
Q 331 3838 820 4291 
Q 1309 4744 2131 4744 
Q 3044 4744 3544 4128 
Q 4044 3513 4044 2388 
Q 4044 1231 3459 570 
Q 2875 -91 1856 -91 
Q 1528 -91 1228 -42 
Q 928 6 641 103 
z
M 2125 2350 
Q 2441 2350 2600 2554 
Q 2759 2759 2759 3169 
Q 2759 3575 2600 3781 
Q 2441 3988 2125 3988 
Q 1809 3988 1650 3781 
Q 1491 3575 1491 3169 
Q 1491 2759 1650 2554 
Q 1809 2350 2125 2350 
z
" transform="scale(0.015625)"/>
    </defs>
    <use xlink:href="#DejaVuSans-Bold-1b"/>
    <use xlink:href="#DejaVuSans-Bold-1c" transform="translate(69.578125 0)"/>
   </g>
  </g>
  <g id="text_7">
   <!-- tok/s -->
   <g style="fill: #1f2328" transform="translate(465.12 106.128) scale(0.21 -0.21)">
    <use xlink:href="#DejaVuSans-57"/>
    <use xlink:href="#DejaVuSans-52" transform="translate(39.203125 0)"/>
    <use xlink:href="#DejaVuSans-4e" transform="translate(100.390625 0)"/>
    <use xlink:href="#DejaVuSans-12" transform="translate(158.296875 0)"/>
    <use xlink:href="#DejaVuSans-56" transform="translate(191.984375 0)"/>
   </g>
  </g>
  <g id="text_8">
   <!-- chat, default settings -->
   <g style="fill: #1f2328" transform="translate(388.8 136.405031) scale(0.19 -0.19)">
    <defs>
     <path id="DejaVuSans-49" d="M 2375 4863 
L 2375 4384 
L 1825 4384 
Q 1516 4384 1395 4259 
Q 1275 4134 1275 3809 
L 1275 3500 
L 2222 3500 
L 2222 3053 
L 1275 3053 
L 1275 0 
L 697 0 
L 697 3053 
L 147 3053 
L 147 3500 
L 697 3500 
L 697 3744 
Q 697 4328 969 4595 
Q 1241 4863 1831 4863 
L 2375 4863 
z
" transform="scale(0.015625)"/>
     <path id="DejaVuSans-58" d="M 544 1381 
L 544 3500 
L 1119 3500 
L 1119 1403 
Q 1119 906 1312 657 
Q 1506 409 1894 409 
Q 2359 409 2629 706 
Q 2900 1003 2900 1516 
L 2900 3500 
L 3475 3500 
L 3475 0 
L 2900 0 
L 2900 538 
Q 2691 219 2414 64 
Q 2138 -91 1772 -91 
Q 1169 -91 856 284 
Q 544 659 544 1381 
z
M 1991 3584 
L 1991 3584 
z
" transform="scale(0.015625)"/>
    </defs>
    <use xlink:href="#DejaVuSans-46"/>
    <use xlink:href="#DejaVuSans-4b" transform="translate(54.984375 0)"/>
    <use xlink:href="#DejaVuSans-44" transform="translate(118.359375 0)"/>
    <use xlink:href="#DejaVuSans-57" transform="translate(179.640625 0)"/>
    <use xlink:href="#DejaVuSans-f" transform="translate(218.84375 0)"/>
    <use xlink:href="#DejaVuSans-3" transform="translate(250.625 0)"/>
    <use xlink:href="#DejaVuSans-47" transform="translate(282.40625 0)"/>
    <use xlink:href="#DejaVuSans-48" transform="translate(345.890625 0)"/>
    <use xlink:href="#DejaVuSans-49" transform="translate(407.421875 0)"/>
    <use xlink:href="#DejaVuSans-44" transform="translate(442.625 0)"/>
    <use xlink:href="#DejaVuSans-58" transform="translate(503.90625 0)"/>
    <use xlink:href="#DejaVuSans-4f" transform="translate(567.28125 0)"/>
    <use xlink:href="#DejaVuSans-57" transform="translate(595.0625 0)"/>
    <use xlink:href="#DejaVuSans-3" transform="translate(634.265625 0)"/>
    <use xlink:href="#DejaVuSans-56" transform="translate(666.046875 0)"/>
    <use xlink:href="#DejaVuSans-48" transform="translate(718.140625 0)"/>
    <use xlink:href="#DejaVuSans-57" transform="translate(779.671875 0)"/>
    <use xlink:href="#DejaVuSans-57" transform="translate(818.875 0)"/>
    <use xlink:href="#DejaVuSans-4c" transform="translate(858.078125 0)"/>
    <use xlink:href="#DejaVuSans-51" transform="translate(885.859375 0)"/>
    <use xlink:href="#DejaVuSans-4a" transform="translate(949.234375 0)"/>
    <use xlink:href="#DejaVuSans-56" transform="translate(1012.71875 0)"/>
   </g>
  </g>
  <g id="text_9">
   <!-- one chat, T=1.0, thinking on -->
   <g style="fill: #424a53" transform="translate(388.8 153.1335) scale(0.16 -0.16)">
    <use xlink:href="#DejaVuSans-52"/>
    <use xlink:href="#DejaVuSans-51" transform="translate(61.1875 0)"/>
    <use xlink:href="#DejaVuSans-48" transform="translate(124.5625 0)"/>
    <use xlink:href="#DejaVuSans-3" transform="translate(186.09375 0)"/>
    <use xlink:href="#DejaVuSans-46" transform="translate(217.875 0)"/>
    <use xlink:href="#DejaVuSans-4b" transform="translate(272.859375 0)"/>
    <use xlink:href="#DejaVuSans-44" transform="translate(336.234375 0)"/>
    <use xlink:href="#DejaVuSans-57" transform="translate(397.515625 0)"/>
    <use xlink:href="#DejaVuSans-f" transform="translate(436.71875 0)"/>
    <use xlink:href="#DejaVuSans-3" transform="translate(468.5 0)"/>
    <use xlink:href="#DejaVuSans-37" transform="translate(500.28125 0)"/>
    <use xlink:href="#DejaVuSans-20" transform="translate(561.359375 0)"/>
    <use xlink:href="#DejaVuSans-14" transform="translate(645.15625 0)"/>
    <use xlink:href="#DejaVuSans-11" transform="translate(708.78125 0)"/>
    <use xlink:href="#DejaVuSans-13" transform="translate(740.5625 0)"/>
    <use xlink:href="#DejaVuSans-f" transform="translate(804.1875 0)"/>
    <use xlink:href="#DejaVuSans-3" transform="translate(835.96875 0)"/>
    <use xlink:href="#DejaVuSans-57" transform="translate(867.75 0)"/>
    <use xlink:href="#DejaVuSans-4b" transform="translate(906.953125 0)"/>
    <use xlink:href="#DejaVuSans-4c" transform="translate(970.328125 0)"/>
    <use xlink:href="#DejaVuSans-51" transform="translate(998.109375 0)"/>
    <use xlink:href="#DejaVuSans-4e" transform="translate(1061.484375 0)"/>
    <use xlink:href="#DejaVuSans-4c" transform="translate(1119.390625 0)"/>
    <use xlink:href="#DejaVuSans-51" transform="translate(1147.171875 0)"/>
    <use xlink:href="#DejaVuSans-4a" transform="translate(1210.546875 0)"/>
    <use xlink:href="#DejaVuSans-3" transform="translate(1274.03125 0)"/>
    <use xlink:href="#DejaVuSans-52" transform="translate(1305.8125 0)"/>
    <use xlink:href="#DejaVuSans-51" transform="translate(1367 0)"/>
   </g>
  </g>
  <g id="text_10">
   <!-- 237 -->
   <g style="fill: #1f2328" transform="translate(50.4 245.52) scale(0.48 -0.48)">
    <defs>
     <path id="DejaVuSans-Bold-15" d="M 1844 884 
L 3897 884 
L 3897 0 
L 506 0 
L 506 884 
L 2209 2388 
Q 2438 2594 2547 2791 
Q 2656 2988 2656 3200 
Q 2656 3528 2436 3728 
Q 2216 3928 1850 3928 
Q 1569 3928 1234 3808 
Q 900 3688 519 3450 
L 519 4475 
Q 925 4609 1322 4679 
Q 1719 4750 2100 4750 
Q 2938 4750 3402 4381 
Q 3866 4013 3866 3353 
Q 3866 2972 3669 2642 
Q 3472 2313 2841 1759 
L 1844 884 
z
" transform="scale(0.015625)"/>
     <path id="DejaVuSans-Bold-16" d="M 2981 2516 
Q 3453 2394 3698 2092 
Q 3944 1791 3944 1325 
Q 3944 631 3412 270 
Q 2881 -91 1863 -91 
Q 1503 -91 1142 -33 
Q 781 25 428 141 
L 428 1069 
Q 766 900 1098 814 
Q 1431 728 1753 728 
Q 2231 728 2486 893 
Q 2741 1059 2741 1369 
Q 2741 1688 2480 1852 
Q 2219 2016 1709 2016 
L 1228 2016 
L 1228 2791 
L 1734 2791 
Q 2188 2791 2409 2933 
Q 2631 3075 2631 3366 
Q 2631 3634 2415 3781 
Q 2200 3928 1806 3928 
Q 1516 3928 1219 3862 
Q 922 3797 628 3669 
L 628 4550 
Q 984 4650 1334 4700 
Q 1684 4750 2022 4750 
Q 2931 4750 3382 4451 
Q 3834 4153 3834 3553 
Q 3834 3144 3618 2883 
Q 3403 2622 2981 2516 
z
" transform="scale(0.015625)"/>
     <path id="DejaVuSans-Bold-1a" d="M 428 4666 
L 3944 4666 
L 3944 3988 
L 2125 0 
L 953 0 
L 2675 3781 
L 428 3781 
L 428 4666 
z
" transform="scale(0.015625)"/>
    </defs>
    <use xlink:href="#DejaVuSans-Bold-15"/>
    <use xlink:href="#DejaVuSans-Bold-16" transform="translate(69.578125 0)"/>
    <use xlink:href="#DejaVuSans-Bold-1a" transform="translate(139.15625 0)"/>
   </g>
  </g>
  <g id="text_11">
   <!-- tok/s -->
   <g style="fill: #1f2328" transform="translate(160.56 245.52) scale(0.21 -0.21)">
    <use xlink:href="#DejaVuSans-57"/>
    <use xlink:href="#DejaVuSans-52" transform="translate(39.203125 0)"/>
    <use xlink:href="#DejaVuSans-4e" transform="translate(100.390625 0)"/>
    <use xlink:href="#DejaVuSans-12" transform="translate(158.296875 0)"/>
    <use xlink:href="#DejaVuSans-56" transform="translate(191.984375 0)"/>
   </g>
  </g>
  <g id="text_12">
   <!-- 16 chats at once, combined -->
   <g style="fill: #1f2328" transform="translate(50.4 275.797031) scale(0.19 -0.19)">
    <defs>
     <path id="DejaVuSans-45" d="M 3116 1747 
Q 3116 2381 2855 2742 
Q 2594 3103 2138 3103 
Q 1681 3103 1420 2742 
Q 1159 2381 1159 1747 
Q 1159 1113 1420 752 
Q 1681 391 2138 391 
Q 2594 391 2855 752 
Q 3116 1113 3116 1747 
z
M 1159 2969 
Q 1341 3281 1617 3432 
Q 1894 3584 2278 3584 
Q 2916 3584 3314 3078 
Q 3713 2572 3713 1747 
Q 3713 922 3314 415 
Q 2916 -91 2278 -91 
Q 1894 -91 1617 61 
Q 1341 213 1159 525 
L 1159 0 
L 581 0 
L 581 4863 
L 1159 4863 
L 1159 2969 
z
" transform="scale(0.015625)"/>
    </defs>
    <use xlink:href="#DejaVuSans-14"/>
    <use xlink:href="#DejaVuSans-19" transform="translate(63.625 0)"/>
    <use xlink:href="#DejaVuSans-3" transform="translate(127.25 0)"/>
    <use xlink:href="#DejaVuSans-46" transform="translate(159.03125 0)"/>
    <use xlink:href="#DejaVuSans-4b" transform="translate(214.015625 0)"/>
    <use xlink:href="#DejaVuSans-44" transform="translate(277.390625 0)"/>
    <use xlink:href="#DejaVuSans-57" transform="translate(338.671875 0)"/>
    <use xlink:href="#DejaVuSans-56" transform="translate(377.875 0)"/>
    <use xlink:href="#DejaVuSans-3" transform="translate(429.96875 0)"/>
    <use xlink:href="#DejaVuSans-44" transform="translate(461.75 0)"/>
    <use xlink:href="#DejaVuSans-57" transform="translate(523.03125 0)"/>
    <use xlink:href="#DejaVuSans-3" transform="translate(562.234375 0)"/>
    <use xlink:href="#DejaVuSans-52" transform="translate(594.015625 0)"/>
    <use xlink:href="#DejaVuSans-51" transform="translate(655.203125 0)"/>
    <use xlink:href="#DejaVuSans-46" transform="translate(718.578125 0)"/>
    <use xlink:href="#DejaVuSans-48" transform="translate(773.5625 0)"/>
    <use xlink:href="#DejaVuSans-f" transform="translate(835.09375 0)"/>
    <use xlink:href="#DejaVuSans-3" transform="translate(866.875 0)"/>
    <use xlink:href="#DejaVuSans-46" transform="translate(898.65625 0)"/>
    <use xlink:href="#DejaVuSans-52" transform="translate(953.640625 0)"/>
    <use xlink:href="#DejaVuSans-50" transform="translate(1014.828125 0)"/>
    <use xlink:href="#DejaVuSans-45" transform="translate(1112.234375 0)"/>
    <use xlink:href="#DejaVuSans-4c" transform="translate(1175.71875 0)"/>
    <use xlink:href="#DejaVuSans-51" transform="translate(1203.5 0)"/>
    <use xlink:href="#DejaVuSans-48" transform="translate(1266.875 0)"/>
    <use xlink:href="#DejaVuSans-47" transform="translate(1328.40625 0)"/>
   </g>
  </g>
  <g id="text_13">
   <!-- default settings -->
   <g style="fill: #424a53" transform="translate(50.4 292.5255) scale(0.16 -0.16)">
    <use xlink:href="#DejaVuSans-47"/>
    <use xlink:href="#DejaVuSans-48" transform="translate(63.484375 0)"/>
    <use xlink:href="#DejaVuSans-49" transform="translate(125.015625 0)"/>
    <use xlink:href="#DejaVuSans-44" transform="translate(160.21875 0)"/>
    <use xlink:href="#DejaVuSans-58" transform="translate(221.5 0)"/>
    <use xlink:href="#DejaVuSans-4f" transform="translate(284.875 0)"/>
    <use xlink:href="#DejaVuSans-57" transform="translate(312.65625 0)"/>
    <use xlink:href="#DejaVuSans-3" transform="translate(351.859375 0)"/>
    <use xlink:href="#DejaVuSans-56" transform="translate(383.640625 0)"/>
    <use xlink:href="#DejaVuSans-48" transform="translate(435.734375 0)"/>
    <use xlink:href="#DejaVuSans-57" transform="translate(497.265625 0)"/>
    <use xlink:href="#DejaVuSans-57" transform="translate(536.46875 0)"/>
    <use xlink:href="#DejaVuSans-4c" transform="translate(575.671875 0)"/>
    <use xlink:href="#DejaVuSans-51" transform="translate(603.453125 0)"/>
    <use xlink:href="#DejaVuSans-4a" transform="translate(666.828125 0)"/>
    <use xlink:href="#DejaVuSans-56" transform="translate(730.3125 0)"/>
   </g>
  </g>
  <g id="text_14">
   <!-- 100 -->
   <g style="fill: #1f2328" transform="translate(388.8 245.52) scale(0.48 -0.48)">
    <use xlink:href="#DejaVuSans-Bold-14"/>
    <use xlink:href="#DejaVuSans-Bold-13" transform="translate(69.578125 0)"/>
    <use xlink:href="#DejaVuSans-Bold-13" transform="translate(139.15625 0)"/>
   </g>
  </g>
  <g id="text_15">
   <!-- /100 -->
   <g style="fill: #1f2328" transform="translate(498.96 245.52) scale(0.21 -0.21)">
    <use xlink:href="#DejaVuSans-12"/>
    <use xlink:href="#DejaVuSans-14" transform="translate(33.6875 0)"/>
    <use xlink:href="#DejaVuSans-13" transform="translate(97.3125 0)"/>
    <use xlink:href="#DejaVuSans-13" transform="translate(160.9375 0)"/>
   </g>
  </g>
  <g id="text_16">
   <!-- tool calls made when required -->
   <g style="fill: #1f2328" transform="translate(388.8 275.797031) scale(0.19 -0.19)">
    <defs>
     <path id="DejaVuSans-5a" d="M 269 3500 
L 844 3500 
L 1563 769 
L 2278 3500 
L 2956 3500 
L 3675 769 
L 4391 3500 
L 4966 3500 
L 4050 0 
L 3372 0 
L 2619 2869 
L 1863 0 
L 1184 0 
L 269 3500 
z
" transform="scale(0.015625)"/>
     <path id="DejaVuSans-54" d="M 947 1747 
Q 947 1113 1208 752 
Q 1469 391 1925 391 
Q 2381 391 2643 752 
Q 2906 1113 2906 1747 
Q 2906 2381 2643 2742 
Q 2381 3103 1925 3103 
Q 1469 3103 1208 2742 
Q 947 2381 947 1747 
z
M 2906 525 
Q 2725 213 2448 61 
Q 2172 -91 1784 -91 
Q 1150 -91 751 415 
Q 353 922 353 1747 
Q 353 2572 751 3078 
Q 1150 3584 1784 3584 
Q 2172 3584 2448 3432 
Q 2725 3281 2906 2969 
L 2906 3500 
L 3481 3500 
L 3481 -1331 
L 2906 -1331 
L 2906 525 
z
" transform="scale(0.015625)"/>
    </defs>
    <use xlink:href="#DejaVuSans-57"/>
    <use xlink:href="#DejaVuSans-52" transform="translate(39.203125 0)"/>
    <use xlink:href="#DejaVuSans-52" transform="translate(100.390625 0)"/>
    <use xlink:href="#DejaVuSans-4f" transform="translate(161.578125 0)"/>
    <use xlink:href="#DejaVuSans-3" transform="translate(189.359375 0)"/>
    <use xlink:href="#DejaVuSans-46" transform="translate(221.140625 0)"/>
    <use xlink:href="#DejaVuSans-44" transform="translate(276.125 0)"/>
    <use xlink:href="#DejaVuSans-4f" transform="translate(337.40625 0)"/>
    <use xlink:href="#DejaVuSans-4f" transform="translate(365.1875 0)"/>
    <use xlink:href="#DejaVuSans-56" transform="translate(392.96875 0)"/>
    <use xlink:href="#DejaVuSans-3" transform="translate(445.0625 0)"/>
    <use xlink:href="#DejaVuSans-50" transform="translate(476.84375 0)"/>
    <use xlink:href="#DejaVuSans-44" transform="translate(574.25 0)"/>
    <use xlink:href="#DejaVuSans-47" transform="translate(635.53125 0)"/>
    <use xlink:href="#DejaVuSans-48" transform="translate(699.015625 0)"/>
    <use xlink:href="#DejaVuSans-3" transform="translate(760.546875 0)"/>
    <use xlink:href="#DejaVuSans-5a" transform="translate(792.328125 0)"/>
    <use xlink:href="#DejaVuSans-4b" transform="translate(874.109375 0)"/>
    <use xlink:href="#DejaVuSans-48" transform="translate(937.484375 0)"/>
    <use xlink:href="#DejaVuSans-51" transform="translate(999.015625 0)"/>
    <use xlink:href="#DejaVuSans-3" transform="translate(1062.390625 0)"/>
    <use xlink:href="#DejaVuSans-55" transform="translate(1094.171875 0)"/>
    <use xlink:href="#DejaVuSans-48" transform="translate(1133.078125 0)"/>
    <use xlink:href="#DejaVuSans-54" transform="translate(1194.609375 0)"/>
    <use xlink:href="#DejaVuSans-58" transform="translate(1258.09375 0)"/>
    <use xlink:href="#DejaVuSans-4c" transform="translate(1321.46875 0)"/>
    <use xlink:href="#DejaVuSans-55" transform="translate(1349.25 0)"/>
    <use xlink:href="#DejaVuSans-48" transform="translate(1388.15625 0)"/>
    <use xlink:href="#DejaVuSans-47" transform="translate(1449.6875 0)"/>
   </g>
  </g>
  <g id="text_17">
   <!-- quality gate -->
   <g style="fill: #424a53" transform="translate(388.8 292.5255) scale(0.16 -0.16)">
    <defs>
     <path id="DejaVuSans-5c" d="M 2059 -325 
Q 1816 -950 1584 -1140 
Q 1353 -1331 966 -1331 
L 506 -1331 
L 506 -850 
L 844 -850 
Q 1081 -850 1212 -737 
Q 1344 -625 1503 -206 
L 1606 56 
L 191 3500 
L 800 3500 
L 1894 763 
L 2988 3500 
L 3597 3500 
L 2059 -325 
z
" transform="scale(0.015625)"/>
    </defs>
    <use xlink:href="#DejaVuSans-54"/>
    <use xlink:href="#DejaVuSans-58" transform="translate(63.484375 0)"/>
    <use xlink:href="#DejaVuSans-44" transform="translate(126.859375 0)"/>
    <use xlink:href="#DejaVuSans-4f" transform="translate(188.140625 0)"/>
    <use xlink:href="#DejaVuSans-4c" transform="translate(215.921875 0)"/>
    <use xlink:href="#DejaVuSans-57" transform="translate(243.703125 0)"/>
    <use xlink:href="#DejaVuSans-5c" transform="translate(282.90625 0)"/>
    <use xlink:href="#DejaVuSans-3" transform="translate(342.09375 0)"/>
    <use xlink:href="#DejaVuSans-4a" transform="translate(373.875 0)"/>
    <use xlink:href="#DejaVuSans-44" transform="translate(437.359375 0)"/>
    <use xlink:href="#DejaVuSans-57" transform="translate(498.640625 0)"/>
    <use xlink:href="#DejaVuSans-48" transform="translate(537.84375 0)"/>
   </g>
  </g>
  <g id="text_18">
   <!-- Two DGX Sparks  ·  release v2.0.0  ·  262K context -->
   <g style="fill: #424a53" transform="translate(28.8 32.92868) scale(0.17 -0.17)">
    <defs>
     <path id="DejaVuSans-27" d="M 1259 4147 
L 1259 519 
L 2022 519 
Q 2988 519 3436 956 
Q 3884 1394 3884 2338 
Q 3884 3275 3436 3711 
Q 2988 4147 2022 4147 
L 1259 4147 
z
M 628 4666 
L 1925 4666 
Q 3281 4666 3915 4102 
Q 4550 3538 4550 2338 
Q 4550 1131 3912 565 
Q 3275 0 1925 0 
L 628 0 
L 628 4666 
z
" transform="scale(0.015625)"/>
     <path id="DejaVuSans-2a" d="M 3809 666 
L 3809 1919 
L 2778 1919 
L 2778 2438 
L 4434 2438 
L 4434 434 
Q 4069 175 3628 42 
Q 3188 -91 2688 -91 
Q 1594 -91 976 548 
Q 359 1188 359 2328 
Q 359 3472 976 4111 
Q 1594 4750 2688 4750 
Q 3144 4750 3555 4637 
Q 3966 4525 4313 4306 
L 4313 3634 
Q 3963 3931 3569 4081 
Q 3175 4231 2741 4231 
Q 1884 4231 1454 3753 
Q 1025 3275 1025 2328 
Q 1025 1384 1454 906 
Q 1884 428 2741 428 
Q 3075 428 3337 486 
Q 3600 544 3809 666 
z
" transform="scale(0.015625)"/>
     <path id="DejaVuSans-3b" d="M 403 4666 
L 1081 4666 
L 2241 2931 
L 3406 4666 
L 4084 4666 
L 2584 2425 
L 4184 0 
L 3506 0 
L 2194 1984 
L 872 0 
L 191 0 
L 1856 2491 
L 403 4666 
z
" transform="scale(0.015625)"/>
     <path id="DejaVuSans-36" d="M 3425 4513 
L 3425 3897 
Q 3066 4069 2747 4153 
Q 2428 4238 2131 4238 
Q 1616 4238 1336 4038 
Q 1056 3838 1056 3469 
Q 1056 3159 1242 3001 
Q 1428 2844 1947 2747 
L 2328 2669 
Q 3034 2534 3370 2195 
Q 3706 1856 3706 1288 
Q 3706 609 3251 259 
Q 2797 -91 1919 -91 
Q 1588 -91 1214 -16 
Q 841 59 441 206 
L 441 856 
Q 825 641 1194 531 
Q 1563 422 1919 422 
Q 2459 422 2753 634 
Q 3047 847 3047 1241 
Q 3047 1584 2836 1778 
Q 2625 1972 2144 2069 
L 1759 2144 
Q 1053 2284 737 2584 
Q 422 2884 422 3419 
Q 422 4038 858 4394 
Q 1294 4750 2059 4750 
Q 2388 4750 2728 4690 
Q 3069 4631 3425 4513 
z
" transform="scale(0.015625)"/>
     <path id="DejaVuSans-79" d="M 684 2619 
L 1344 2619 
L 1344 1825 
L 684 1825 
L 684 2619 
z
" transform="scale(0.015625)"/>
     <path id="DejaVuSans-2e" d="M 628 4666 
L 1259 4666 
L 1259 2694 
L 3353 4666 
L 4166 4666 
L 1850 2491 
L 4331 0 
L 3500 0 
L 1259 2247 
L 1259 0 
L 628 0 
L 628 4666 
z
" transform="scale(0.015625)"/>
     <path id="DejaVuSans-5b" d="M 3513 3500 
L 2247 1797 
L 3578 0 
L 2900 0 
L 1881 1375 
L 863 0 
L 184 0 
L 1544 1831 
L 300 3500 
L 978 3500 
L 1906 2253 
L 2834 3500 
L 3513 3500 
z
" transform="scale(0.015625)"/>
    </defs>
    <use xlink:href="#DejaVuSans-37"/>
    <use xlink:href="#DejaVuSans-5a" transform="translate(44.53125 0)"/>
    <use xlink:href="#DejaVuSans-52" transform="translate(126.3125 0)"/>
    <use xlink:href="#DejaVuSans-3" transform="translate(187.5 0)"/>
    <use xlink:href="#DejaVuSans-27" transform="translate(219.28125 0)"/>
    <use xlink:href="#DejaVuSans-2a" transform="translate(296.28125 0)"/>
    <use xlink:href="#DejaVuSans-3b" transform="translate(373.765625 0)"/>
    <use xlink:href="#DejaVuSans-3" transform="translate(442.265625 0)"/>
    <use xlink:href="#DejaVuSans-36" transform="translate(474.046875 0)"/>
    <use xlink:href="#DejaVuSans-53" transform="translate(537.53125 0)"/>
    <use xlink:href="#DejaVuSans-44" transform="translate(601.015625 0)"/>
    <use xlink:href="#DejaVuSans-55" transform="translate(662.296875 0)"/>
    <use xlink:href="#DejaVuSans-4e" transform="translate(703.40625 0)"/>
    <use xlink:href="#DejaVuSans-56" transform="translate(761.3125 0)"/>
    <use xlink:href="#DejaVuSans-3" transform="translate(813.40625 0)"/>
    <use xlink:href="#DejaVuSans-3" transform="translate(845.1875 0)"/>
    <use xlink:href="#DejaVuSans-79" transform="translate(876.96875 0)"/>
    <use xlink:href="#DejaVuSans-3" transform="translate(908.75 0)"/>
    <use xlink:href="#DejaVuSans-3" transform="translate(940.53125 0)"/>
    <use xlink:href="#DejaVuSans-55" transform="translate(972.3125 0)"/>
    <use xlink:href="#DejaVuSans-48" transform="translate(1011.21875 0)"/>
    <use xlink:href="#DejaVuSans-4f" transform="translate(1072.75 0)"/>
    <use xlink:href="#DejaVuSans-48" transform="translate(1100.53125 0)"/>
    <use xlink:href="#DejaVuSans-44" transform="translate(1162.0625 0)"/>
    <use xlink:href="#DejaVuSans-56" transform="translate(1223.34375 0)"/>
    <use xlink:href="#DejaVuSans-48" transform="translate(1275.4375 0)"/>
    <use xlink:href="#DejaVuSans-3" transform="translate(1336.96875 0)"/>
    <use xlink:href="#DejaVuSans-59" transform="translate(1368.75 0)"/>
    <use xlink:href="#DejaVuSans-15" transform="translate(1427.9375 0)"/>
    <use xlink:href="#DejaVuSans-11" transform="translate(1491.5625 0)"/>
    <use xlink:href="#DejaVuSans-13" transform="translate(1523.34375 0)"/>
    <use xlink:href="#DejaVuSans-11" transform="translate(1586.96875 0)"/>
    <use xlink:href="#DejaVuSans-13" transform="translate(1618.75 0)"/>
    <use xlink:href="#DejaVuSans-3" transform="translate(1682.375 0)"/>
    <use xlink:href="#DejaVuSans-3" transform="translate(1714.15625 0)"/>
    <use xlink:href="#DejaVuSans-79" transform="translate(1745.9375 0)"/>
    <use xlink:href="#DejaVuSans-3" transform="translate(1777.71875 0)"/>
    <use xlink:href="#DejaVuSans-3" transform="translate(1809.5 0)"/>
    <use xlink:href="#DejaVuSans-15" transform="translate(1841.28125 0)"/>
    <use xlink:href="#DejaVuSans-19" transform="translate(1904.90625 0)"/>
    <use xlink:href="#DejaVuSans-15" transform="translate(1968.53125 0)"/>
    <use xlink:href="#DejaVuSans-2e" transform="translate(2032.15625 0)"/>
    <use xlink:href="#DejaVuSans-3" transform="translate(2097.734375 0)"/>
    <use xlink:href="#DejaVuSans-46" transform="translate(2129.515625 0)"/>
    <use xlink:href="#DejaVuSans-52" transform="translate(2184.5 0)"/>
    <use xlink:href="#DejaVuSans-51" transform="translate(2245.6875 0)"/>
    <use xlink:href="#DejaVuSans-57" transform="translate(2309.0625 0)"/>
    <use xlink:href="#DejaVuSans-48" transform="translate(2348.265625 0)"/>
    <use xlink:href="#DejaVuSans-5b" transform="translate(2408.046875 0)"/>
    <use xlink:href="#DejaVuSans-57" transform="translate(2467.234375 0)"/>
   </g>
  </g>
 </g>
</svg>
