<?xml version="1.0" encoding="utf-8" standalone="no"?>
<!DOCTYPE svg PUBLIC "-//W3C//DTD SVG 1.1//EN"
  "http://www.w3.org/Graphics/SVG/1.1/DTD/svg11.dtd">
<svg xmlns:xlink="http://www.w3.org/1999/xlink" width="864pt" height="273.6pt" viewBox="0 0 864 273.6" xmlns="http://www.w3.org/2000/svg" version="1.1">
 <metadata>
  <rdf:RDF xmlns:dc="http://purl.org/dc/elements/1.1/" xmlns:cc="http://creativecommons.org/ns#" xmlns:rdf="http://www.w3.org/1999/02/22-rdf-syntax-ns#">
   <cc:Work>
    <dc:type rdf:resource="http://purl.org/dc/dcmitype/StillImage"/>
    <dc:format>image/svg+xml</dc:format>
    <dc:creator>
     <cc:Agent>
      <dc:title>Matplotlib v3.11.2, https://matplotlib.org/</dc:title>
     </cc:Agent>
    </dc:creator>
   </cc:Work>
  </rdf:RDF>
 </metadata>
 <defs>
  <style type="text/css">*{stroke-linejoin: round; stroke-linecap: butt}</style>
 </defs>
 <g id="figure_1">
  <g id="patch_1">
   <path d="M 0 273.6 
L 864 273.6 
L 864 0 
L 0 0 
L 0 273.6 
z
" style="fill: none"/>
  </g>
  <g id="axes_1">
   <g id="patch_2">
    <path d="M 0 273.6 
L 864 273.6 
L 864 0 
L 0 0 
z
" clip-path="url(#p99c257931c)" style="fill: #f5f7f2"/>
   </g>
   <g id="patch_3">
    <path d="M 573.12 162 
L 650.88 162 
Q 658.08 162 658.08 154.8 
L 658.08 77.04 
Q 658.08 69.84 650.88 69.84 
L 573.12 69.84 
Q 565.92 69.84 565.92 77.04 
L 565.92 154.8 
Q 565.92 162 573.12 162 
z
" clip-path="url(#p99c257931c)" style="fill: #f5f7f2; stroke: #c9d3c9; stroke-width: 1.5; stroke-linejoin: miter"/>
   </g>
   <g id="patch_4">
    <path d="M 702.72 162 
L 780.48 162 
Q 787.68 162 787.68 154.8 
L 787.68 77.04 
Q 787.68 69.84 780.48 69.84 
L 702.72 69.84 
Q 695.52 69.84 695.52 77.04 
L 695.52 154.8 
Q 695.52 162 702.72 162 
z
" clip-path="url(#p99c257931c)" style="fill: #f5f7f2; stroke: #c9d3c9; stroke-width: 1.5; stroke-linejoin: miter"/>
   </g>
   <g id="line2d_1">
    <path d="M 39.6 37.44 
L 59.76 37.44 
" clip-path="url(#p99c257931c)" style="fill: none; stroke: #426f2a; stroke-width: 4"/>
   </g>
   <g id="line2d_2">
    <path d="M 658.08 115.92 
L 695.52 115.92 
" clip-path="url(#p99c257931c)" style="fill: none; stroke: #426f2a; stroke-width: 2; stroke-linecap: round"/>
   </g>
   <g id="line2d_3">
    <path d="M 584.64 146.16 
L 639.36 146.16 
" clip-path="url(#p99c257931c)" style="fill: none; stroke: #c9d3c9; stroke-linecap: round"/>
   </g>
   <g id="line2d_4">
    <path d="M 584.64 142.08 
L 639.36 142.08 
" clip-path="url(#p99c257931c)" style="fill: none; stroke: #c9d3c9; stroke-linecap: round"/>
   </g>
   <g id="line2d_5">
    <path d="M 584.64 138 
L 639.36 138 
" clip-path="url(#p99c257931c)" style="fill: none; stroke: #c9d3c9; stroke-linecap: round"/>
   </g>
   <g id="line2d_6">
    <path d="M 584.64 133.92 
L 639.36 133.92 
" clip-path="url(#p99c257931c)" style="fill: none; stroke: #c9d3c9; stroke-linecap: round"/>
   </g>
   <g id="line2d_7">
    <defs>
     <path id="mb6e25b36d1" d="M 0 2 
C 0.530406 2 1.03916 1.789267 1.414214 1.414214 
C 1.789267 1.03916 2 0.530406 2 0 
C 2 -0.530406 1.789267 -1.03916 1.414214 -1.414214 
C 1.03916 -1.789267 0.530406 -2 0 -2 
C -0.530406 -2 -1.03916 -1.789267 -1.414214 -1.414214 
C -1.789267 -1.03916 -2 -0.530406 -2 0 
C -2 0.530406 -1.789267 1.03916 -1.414214 1.414214 
C -1.03916 1.789267 -0.530406 2 0 2 
z
" style="stroke: #426f2a"/>
    </defs>
    <g clip-path="url(#p99c257931c)">
     <use xlink:href="#mb6e25b36d1" x="642.96" y="85.68" style="fill: #426f2a; stroke: #426f2a"/>
    </g>
   </g>
   <g id="line2d_8">
    <path d="M 714.24 146.16 
L 768.96 146.16 
" clip-path="url(#p99c257931c)" style="fill: none; stroke: #c9d3c9; stroke-linecap: round"/>
   </g>
   <g id="line2d_9">
    <path d="M 714.24 142.08 
L 768.96 142.08 
" clip-path="url(#p99c257931c)" style="fill: none; stroke: #c9d3c9; stroke-linecap: round"/>
   </g>
   <g id="line2d_10">
    <path d="M 714.24 138 
L 768.96 138 
" clip-path="url(#p99c257931c)" style="fill: none; stroke: #c9d3c9; stroke-linecap: round"/>
   </g>
   <g id="line2d_11">
    <path d="M 714.24 133.92 
L 768.96 133.92 
" clip-path="url(#p99c257931c)" style="fill: none; stroke: #c9d3c9; stroke-linecap: round"/>
   </g>
   <g id="line2d_12">
    <g clip-path="url(#p99c257931c)">
     <use xlink:href="#mb6e25b36d1" x="772.56" y="85.68" style="fill: #426f2a; stroke: #426f2a"/>
    </g>
   </g>
   <g id="line2d_13">
    <path d="M 39.6 226.08 
L 824.4 226.08 
" clip-path="url(#p99c257931c)" style="fill: none; stroke: #c9d3c9; stroke-width: 0.8; stroke-linecap: round"/>
   </g>
   <g id="text_1">
    <!-- LOCAL INFERENCE -->
    <g style="fill: #536558" transform="translate(72 41.805234) scale(0.12 -0.12)">
     <defs>
      <path id="Inter-SemiBold-119" d="M 469 0 
L 469 4656 
L 1303 4656 
L 1303 703 
L 3359 703 
L 3359 0 
L 469 0 
z
" transform="scale(0.015625)"/>
      <path id="Inter-SemiBold-141" d="M 2463 -63 
Q 1850 -63 1367 221 
Q 884 506 603 1040 
Q 322 1575 322 2325 
Q 322 3078 603 3614 
Q 884 4150 1367 4434 
Q 1850 4719 2463 4719 
Q 3072 4719 3555 4434 
Q 4038 4150 4317 3614 
Q 4597 3078 4597 2325 
Q 4597 1572 4317 1039 
Q 4038 506 3555 221 
Q 3072 -63 2463 -63 
z
M 2463 684 
Q 3031 684 3393 1106 
Q 3756 1528 3756 2325 
Q 3756 3125 3393 3548 
Q 3031 3972 2463 3972 
Q 1891 3972 1525 3548 
Q 1159 3125 1159 2325 
Q 1159 1531 1525 1107 
Q 1891 684 2463 684 
z
" transform="scale(0.015625)"/>
      <path id="Inter-SemiBold-49" d="M 2453 -63 
Q 1841 -63 1359 221 
Q 878 506 600 1040 
Q 322 1575 322 2325 
Q 322 3078 601 3614 
Q 881 4150 1362 4434 
Q 1844 4719 2453 4719 
Q 2963 4719 3380 4528 
Q 3797 4338 4069 3977 
Q 4341 3616 4416 3106 
L 3575 3106 
Q 3497 3519 3190 3745 
Q 2884 3972 2466 3972 
Q 1894 3972 1526 3545 
Q 1159 3119 1159 2325 
Q 1159 1522 1528 1103 
Q 1897 684 2463 684 
Q 2881 684 3189 911 
Q 3497 1138 3575 1550 
L 4419 1550 
Q 4353 1103 4097 737 
Q 3841 372 3422 154 
Q 3003 -63 2453 -63 
z
" transform="scale(0.015625)"/>
      <path id="Inter-SemiBold-2" d="M 156 0 
L 1781 4656 
L 2841 4656 
L 4503 0 
L 3588 0 
L 3191 1153 
L 1450 1153 
L 1069 0 
L 156 0 
z
M 1672 1825 
L 2963 1825 
L 2759 2419 
Q 2656 2741 2545 3131 
Q 2434 3522 2303 4006 
Q 2178 3519 2072 3123 
Q 1966 2728 1869 2419 
L 1672 1825 
z
" transform="scale(0.015625)"/>
      <path id="Inter-SemiBold-6f1" transform="scale(0.015625)"/>
      <path id="Inter-SemiBold-c5" d="M 1303 4656 
L 1303 0 
L 469 0 
L 469 4656 
L 1303 4656 
z
" transform="scale(0.015625)"/>
      <path id="Inter-SemiBold-12c" d="M 469 0 
L 469 4656 
L 1413 4656 
L 3022 2091 
Q 3147 1891 3294 1623 
Q 3441 1356 3594 1006 
Q 3569 1344 3556 1672 
Q 3544 2000 3544 2213 
L 3544 4656 
L 4391 4656 
L 4391 0 
L 3444 0 
L 1991 2309 
Q 1869 2503 1761 2693 
Q 1653 2884 1534 3109 
Q 1416 3334 1259 3638 
Q 1281 3206 1300 2856 
Q 1319 2506 1319 2313 
L 1319 0 
L 469 0 
z
" transform="scale(0.015625)"/>
      <path id="Inter-SemiBold-89" d="M 469 0 
L 469 4656 
L 3450 4656 
L 3450 3953 
L 1303 3953 
L 1303 2556 
L 3241 2556 
L 3241 1863 
L 1303 1863 
L 1303 0 
L 469 0 
z
" transform="scale(0.015625)"/>
      <path id="Inter-SemiBold-5f" d="M 469 0 
L 469 4656 
L 3494 4656 
L 3494 3953 
L 1303 3953 
L 1303 2697 
L 3331 2697 
L 3331 2003 
L 1303 2003 
L 1303 703 
L 3506 703 
L 3506 0 
L 469 0 
z
" transform="scale(0.015625)"/>
      <path id="Inter-SemiBold-180" d="M 469 0 
L 469 4656 
L 2209 4656 
Q 3013 4656 3431 4243 
Q 3850 3831 3850 3166 
Q 3850 2694 3637 2353 
Q 3425 2013 3013 1850 
L 4022 0 
L 3088 0 
L 2172 1709 
L 1303 1709 
L 1303 0 
L 469 0 
z
M 1303 2400 
L 2088 2400 
Q 2559 2400 2778 2598 
Q 2997 2797 2997 3166 
Q 2997 3541 2778 3748 
Q 2559 3956 2081 3956 
L 1303 3956 
L 1303 2400 
z
" transform="scale(0.015625)"/>
     </defs>
     <use xlink:href="#Inter-SemiBold-119"/>
     <use xlink:href="#Inter-SemiBold-141" transform="translate(53.71875 0)"/>
     <use xlink:href="#Inter-SemiBold-49" transform="translate(130.578125 0)"/>
     <use xlink:href="#Inter-SemiBold-2" transform="translate(201.78125 0)"/>
     <use xlink:href="#Inter-SemiBold-119" transform="translate(274.53125 0)"/>
     <use xlink:href="#Inter-SemiBold-6f1" transform="translate(331.078125 0)"/>
     <use xlink:href="#Inter-SemiBold-c5" transform="translate(356.28125 0)"/>
     <use xlink:href="#Inter-SemiBold-12c" transform="translate(383.96875 0)"/>
     <use xlink:href="#Inter-SemiBold-89" transform="translate(459.890625 0)"/>
     <use xlink:href="#Inter-SemiBold-5f" transform="translate(518.6875 0)"/>
     <use xlink:href="#Inter-SemiBold-180" transform="translate(579.234375 0)"/>
     <use xlink:href="#Inter-SemiBold-5f" transform="translate(644.46875 0)"/>
     <use xlink:href="#Inter-SemiBold-12c" transform="translate(705.015625 0)"/>
     <use xlink:href="#Inter-SemiBold-49" transform="translate(780.9375 0)"/>
     <use xlink:href="#Inter-SemiBold-5f" transform="translate(854.625 0)"/>
    </g>
   </g>
   <g id="text_2">
    <!-- 02 / DUAL SPARK -->
    <g style="fill: #536558" transform="translate(724.095 41.805234) scale(0.12 -0.12)">
     <defs>
      <path id="Inter-Regular-53d" d="M 2019 -63 
Q 1241 -63 811 562 
Q 381 1188 381 2325 
Q 381 3456 814 4087 
Q 1247 4719 2019 4719 
Q 2794 4719 3225 4087 
Q 3656 3456 3656 2325 
Q 3656 1188 3228 562 
Q 2800 -63 2019 -63 
z
M 2019 456 
Q 2531 456 2807 948 
Q 3084 1441 3084 2325 
Q 3084 3216 2807 3709 
Q 2531 4203 2019 4203 
Q 1509 4203 1231 3708 
Q 953 3213 953 2325 
Q 953 1441 1231 948 
Q 1509 456 2019 456 
z
" transform="scale(0.015625)"/>
      <path id="Inter-Regular-53f" d="M 481 0 
L 481 428 
L 2028 2106 
Q 2288 2388 2459 2600 
Q 2631 2813 2718 3005 
Q 2806 3197 2806 3413 
Q 2806 3778 2554 3990 
Q 2303 4203 1931 4203 
Q 1534 4203 1298 3965 
Q 1063 3728 1063 3334 
L 494 3334 
Q 494 3747 684 4059 
Q 875 4372 1203 4545 
Q 1531 4719 1947 4719 
Q 2363 4719 2683 4545 
Q 3003 4372 3186 4078 
Q 3369 3784 3369 3419 
Q 3369 3166 3278 2927 
Q 3188 2688 2959 2384 
Q 2731 2081 2319 1644 
L 1300 559 
L 1300 522 
L 3447 522 
L 3447 0 
L 481 0 
z
" transform="scale(0.015625)"/>
      <path id="Inter-Regular-6f1" transform="scale(0.015625)"/>
      <path id="Inter-Regular-5af" d="M 2163 4875 
L 663 -700 
L 144 -700 
L 1644 4875 
L 2163 4875 
z
" transform="scale(0.015625)"/>
      <path id="Inter-Regular-54" d="M 2016 0 
L 563 0 
L 563 4656 
L 2075 4656 
Q 2756 4656 3239 4378 
Q 3722 4100 3980 3579 
Q 4238 3059 4238 2338 
Q 4238 1609 3978 1086 
Q 3719 563 3222 281 
Q 2725 0 2016 0 
z
M 1156 525 
L 1978 525 
Q 2828 525 3245 1008 
Q 3663 1491 3663 2338 
Q 3663 3178 3253 3654 
Q 2844 4131 2034 4131 
L 1156 4131 
L 1156 525 
z
" transform="scale(0.015625)"/>
      <path id="Inter-Regular-1a8" d="M 2384 -75 
Q 1834 -75 1423 140 
Q 1013 356 788 731 
Q 563 1106 563 1584 
L 563 4656 
L 1156 4656 
L 1156 1631 
Q 1156 1297 1304 1036 
Q 1453 775 1728 625 
Q 2003 475 2384 475 
Q 2766 475 3039 625 
Q 3313 775 3459 1036 
Q 3606 1297 3606 1631 
L 3606 4656 
L 4200 4656 
L 4200 1584 
Q 4200 1106 3975 731 
Q 3750 356 3342 140 
Q 2934 -75 2384 -75 
z
" transform="scale(0.015625)"/>
      <path id="Inter-Regular-2" d="M 163 0 
L 1853 4656 
L 2541 4656 
L 4253 0 
L 3628 0 
L 3163 1300 
L 1244 1300 
L 794 0 
L 163 0 
z
M 1425 1819 
L 2978 1819 
L 2641 2763 
Q 2556 2997 2450 3336 
Q 2344 3675 2194 4181 
Q 2047 3666 1937 3322 
Q 1828 2978 1753 2763 
L 1425 1819 
z
" transform="scale(0.015625)"/>
      <path id="Inter-Regular-119" d="M 563 0 
L 563 4656 
L 1156 4656 
L 1156 525 
L 3313 525 
L 3313 0 
L 563 0 
z
" transform="scale(0.015625)"/>
      <path id="Inter-Regular-18d" d="M 2053 -81 
Q 1297 -81 850 276 
Q 403 634 363 1219 
L 972 1219 
Q 997 956 1150 786 
Q 1303 616 1542 533 
Q 1781 450 2053 450 
Q 2369 450 2620 553 
Q 2872 656 3019 843 
Q 3166 1031 3166 1278 
Q 3166 1503 3039 1643 
Q 2913 1784 2703 1875 
Q 2494 1966 2244 2034 
L 1681 2194 
Q 1119 2353 806 2650 
Q 494 2947 494 3409 
Q 494 3803 706 4098 
Q 919 4394 1281 4556 
Q 1644 4719 2094 4719 
Q 2553 4719 2906 4556 
Q 3259 4394 3464 4114 
Q 3669 3834 3681 3481 
L 3100 3481 
Q 3059 3822 2775 4008 
Q 2491 4194 2075 4194 
Q 1622 4194 1347 3980 
Q 1072 3766 1072 3438 
Q 1072 3194 1223 3045 
Q 1375 2897 1583 2814 
Q 1791 2731 1959 2684 
L 2425 2556 
Q 2613 2506 2839 2418 
Q 3066 2331 3272 2186 
Q 3478 2041 3611 1817 
Q 3744 1594 3744 1269 
Q 3744 888 3545 581 
Q 3347 275 2969 97 
Q 2591 -81 2053 -81 
z
" transform="scale(0.015625)"/>
      <path id="Inter-Regular-177" d="M 563 0 
L 563 4656 
L 2156 4656 
Q 2700 4656 3051 4457 
Q 3403 4259 3573 3925 
Q 3744 3591 3744 3175 
Q 3744 2759 3573 2421 
Q 3403 2084 3053 1884 
Q 2703 1684 2159 1684 
L 1156 1684 
L 1156 0 
L 563 0 
z
M 1156 2206 
L 2131 2206 
Q 2684 2206 2918 2482 
Q 3153 2759 3153 3175 
Q 3153 3588 2918 3861 
Q 2684 4134 2125 4134 
L 1156 4134 
L 1156 2206 
z
" transform="scale(0.015625)"/>
      <path id="Inter-Regular-180" d="M 563 0 
L 563 4656 
L 2156 4656 
Q 2700 4656 3051 4470 
Q 3403 4284 3573 3959 
Q 3744 3634 3744 3219 
Q 3744 2756 3533 2412 
Q 3322 2069 2881 1916 
L 3925 0 
L 3238 0 
L 2269 1809 
Q 2216 1806 2159 1806 
L 1156 1806 
L 1156 0 
L 563 0 
z
M 1156 2334 
L 2131 2334 
Q 2681 2334 2917 2571 
Q 3153 2809 3153 3219 
Q 3153 3634 2917 3884 
Q 2681 4134 2125 4134 
L 1156 4134 
L 1156 2334 
z
" transform="scale(0.015625)"/>
      <path id="Inter-Regular-10f" d="M 563 0 
L 563 4656 
L 1156 4656 
L 1156 3063 
L 1147 2206 
Q 1341 2459 1539 2690 
Q 1738 2922 1950 3153 
L 3341 4656 
L 4119 4656 
L 2238 2641 
L 4122 0 
L 3419 0 
L 1828 2238 
L 1156 1528 
L 1156 0 
L 563 0 
z
" transform="scale(0.015625)"/>
     </defs>
     <use xlink:href="#Inter-Regular-53d"/>
     <use xlink:href="#Inter-Regular-53f" transform="translate(63.09375 0)"/>
     <use xlink:href="#Inter-Regular-6f1" transform="translate(124.078125 0)"/>
     <use xlink:href="#Inter-Regular-5af" transform="translate(152.203125 0)"/>
     <use xlink:href="#Inter-Regular-6f1" transform="translate(188.234375 0)"/>
     <use xlink:href="#Inter-Regular-54" transform="translate(216.359375 0)"/>
     <use xlink:href="#Inter-Regular-1a8" transform="translate(288.53125 0)"/>
     <use xlink:href="#Inter-Regular-2" transform="translate(361 0)"/>
     <use xlink:href="#Inter-Regular-119" transform="translate(430 0)"/>
     <use xlink:href="#Inter-Regular-6f1" transform="translate(486.546875 0)"/>
     <use xlink:href="#Inter-Regular-18d" transform="translate(514.671875 0)"/>
     <use xlink:href="#Inter-Regular-177" transform="translate(578.828125 0)"/>
     <use xlink:href="#Inter-Regular-2" transform="translate(635.328125 0)"/>
     <use xlink:href="#Inter-Regular-180" transform="translate(704.328125 0)"/>
     <use xlink:href="#Inter-Regular-10f" transform="translate(768.6875 0)"/>
    </g>
   </g>
   <g id="text_3">
    <!-- Qwen3.8 -->
    <g style="fill: #17251d" transform="translate(39.6 110.16) scale(0.48 -0.48)">
     <defs>
      <path id="Inter-SemiBold-17e" d="M 2463 -63 
Q 1850 -63 1367 221 
Q 884 506 603 1040 
Q 322 1575 322 2325 
Q 322 3078 603 3614 
Q 884 4150 1367 4434 
Q 1850 4719 2463 4719 
Q 3072 4719 3555 4434 
Q 4038 4150 4317 3614 
Q 4597 3078 4597 2325 
Q 4597 1694 4394 1212 
Q 4191 731 3841 428 
L 4488 -403 
L 3688 -403 
L 3297 94 
Q 2913 -63 2463 -63 
z
M 2200 1553 
L 2950 1553 
L 3341 1047 
Q 3538 1253 3647 1575 
Q 3756 1897 3756 2325 
Q 3756 3125 3393 3548 
Q 3031 3972 2463 3972 
Q 1891 3972 1525 3548 
Q 1159 3125 1159 2325 
Q 1159 1531 1525 1107 
Q 1891 684 2463 684 
Q 2653 684 2822 734 
L 2200 1553 
z
" transform="scale(0.015625)"/>
      <path id="Inter-SemiBold-3d8" d="M 1178 0 
L 138 3494 
L 994 3494 
L 1338 2125 
Q 1403 1838 1483 1502 
Q 1563 1166 1638 769 
Q 1713 1156 1794 1492 
Q 1875 1828 1950 2125 
L 2303 3494 
L 3078 3494 
L 3422 2125 
Q 3491 1834 3572 1498 
Q 3653 1163 3731 769 
Q 3803 1159 3879 1495 
Q 3956 1831 4028 2125 
L 4372 3494 
L 5234 3494 
L 4191 0 
L 3369 0 
L 2959 1425 
Q 2888 1675 2819 1970 
Q 2750 2266 2684 2559 
Q 2619 2266 2548 1969 
Q 2478 1672 2409 1425 
L 2000 0 
L 1178 0 
z
" transform="scale(0.015625)"/>
      <path id="Inter-SemiBold-266" d="M 1975 -72 
Q 1447 -72 1067 150 
Q 688 372 483 775 
Q 278 1178 278 1725 
Q 278 2263 479 2670 
Q 681 3078 1051 3308 
Q 1422 3538 1922 3538 
Q 2347 3538 2711 3352 
Q 3075 3166 3297 2777 
Q 3519 2388 3519 1775 
L 3519 1519 
L 1088 1519 
Q 1103 1053 1348 809 
Q 1594 566 1984 566 
Q 2253 566 2445 681 
Q 2638 797 2719 1019 
L 3466 866 
Q 3341 444 2948 186 
Q 2556 -72 1975 -72 
z
M 1091 2072 
L 2728 2072 
Q 2691 2447 2489 2673 
Q 2288 2900 1925 2900 
Q 1553 2900 1336 2661 
Q 1119 2422 1091 2072 
z
" transform="scale(0.015625)"/>
      <path id="Inter-SemiBold-305" d="M 1244 2047 
L 1244 0 
L 431 0 
L 431 3494 
L 1200 3494 
L 1209 2797 
Q 1522 3538 2291 3538 
Q 2831 3538 3157 3194 
Q 3484 2850 3484 2222 
L 3484 0 
L 2672 0 
L 2672 2097 
Q 2672 2447 2490 2647 
Q 2309 2847 1991 2847 
Q 1666 2847 1455 2637 
Q 1244 2428 1244 2047 
z
" transform="scale(0.015625)"/>
      <path id="Inter-SemiBold-541" d="M 2034 -63 
Q 1544 -63 1164 104 
Q 784 272 565 572 
Q 347 872 334 1263 
L 1175 1263 
Q 1194 975 1437 806 
Q 1681 638 2034 638 
Q 2409 638 2650 831 
Q 2891 1025 2891 1334 
Q 2891 1653 2642 1854 
Q 2394 2056 1950 2056 
L 1538 2056 
L 1538 2700 
L 1950 2700 
Q 2313 2700 2541 2887 
Q 2769 3075 2769 3381 
Q 2769 3678 2570 3858 
Q 2372 4038 2044 4038 
Q 1722 4038 1483 3869 
Q 1244 3700 1234 3403 
L 431 3403 
Q 438 3791 655 4087 
Q 872 4384 1236 4551 
Q 1600 4719 2050 4719 
Q 2516 4719 2859 4544 
Q 3203 4369 3392 4076 
Q 3581 3784 3581 3431 
Q 3581 3038 3350 2772 
Q 3119 2506 2741 2422 
L 2741 2384 
Q 3228 2316 3489 2022 
Q 3750 1728 3750 1291 
Q 3750 900 3528 594 
Q 3306 288 2918 112 
Q 2531 -63 2034 -63 
z
" transform="scale(0.015625)"/>
      <path id="Inter-SemiBold-5de" d="M 1019 -53 
Q 809 -53 664 90 
Q 519 234 519 447 
Q 519 656 664 800 
Q 809 944 1019 944 
Q 1231 944 1376 800 
Q 1522 656 1522 447 
Q 1522 234 1376 90 
Q 1231 -53 1019 -53 
z
" transform="scale(0.015625)"/>
      <path id="Inter-SemiBold-547" d="M 2047 -63 
Q 1541 -63 1152 106 
Q 763 275 542 572 
Q 322 869 322 1247 
Q 322 1538 450 1784 
Q 578 2031 798 2197 
Q 1019 2363 1294 2409 
L 1294 2438 
Q 934 2519 712 2806 
Q 491 3094 491 3472 
Q 491 3831 692 4112 
Q 894 4394 1245 4556 
Q 1597 4719 2047 4719 
Q 2494 4719 2845 4556 
Q 3197 4394 3400 4112 
Q 3603 3831 3603 3472 
Q 3603 3094 3379 2806 
Q 3156 2519 2803 2438 
L 2803 2409 
Q 3072 2363 3292 2197 
Q 3513 2031 3644 1784 
Q 3775 1538 3775 1247 
Q 3775 869 3553 572 
Q 3331 275 2940 106 
Q 2550 -63 2047 -63 
z
M 2047 581 
Q 2441 581 2677 781 
Q 2913 981 2913 1306 
Q 2913 1641 2666 1856 
Q 2419 2072 2047 2072 
Q 1669 2072 1423 1856 
Q 1178 1641 1178 1306 
Q 1178 981 1414 781 
Q 1650 581 2047 581 
z
M 2047 2703 
Q 2369 2703 2578 2893 
Q 2788 3084 2788 3391 
Q 2788 3694 2581 3878 
Q 2375 4063 2047 4063 
Q 1716 4063 1511 3878 
Q 1306 3694 1306 3391 
Q 1306 3088 1514 2895 
Q 1722 2703 2047 2703 
z
" transform="scale(0.015625)"/>
     </defs>
     <use xlink:href="#Inter-SemiBold-17e"/>
     <use xlink:href="#Inter-SemiBold-3d8" transform="translate(77.296875 0)"/>
     <use xlink:href="#Inter-SemiBold-266" transform="translate(159.71875 0)"/>
     <use xlink:href="#Inter-SemiBold-305" transform="translate(218.84375 0)"/>
     <use xlink:href="#Inter-SemiBold-541" transform="translate(280.03125 0)"/>
     <use xlink:href="#Inter-SemiBold-5de" transform="translate(341.515625 0)"/>
     <use xlink:href="#Inter-SemiBold-547" transform="translate(370.765625 0)"/>
    </g>
   </g>
   <g id="text_4">
    <!-- Flash Next -->
    <g style="fill: #17251d" transform="translate(39.6 173.52) scale(0.48 -0.48)">
     <defs>
      <path id="Inter-SemiBold-2e0" d="M 1244 4656 
L 1244 0 
L 431 0 
L 431 4656 
L 1244 4656 
z
" transform="scale(0.015625)"/>
      <path id="Inter-SemiBold-1fb" d="M 1406 -72 
Q 1075 -72 809 48 
Q 544 169 391 403 
Q 238 638 238 981 
Q 238 1375 430 1592 
Q 622 1809 926 1907 
Q 1231 2006 1569 2041 
Q 2025 2091 2228 2133 
Q 2431 2175 2431 2356 
L 2431 2372 
Q 2431 2628 2275 2770 
Q 2119 2913 1822 2913 
Q 1516 2913 1334 2778 
Q 1153 2644 1091 2472 
L 338 2625 
Q 491 3088 892 3313 
Q 1294 3538 1819 3538 
Q 2066 3538 2317 3480 
Q 2569 3422 2778 3286 
Q 2988 3150 3116 2917 
Q 3244 2684 3244 2334 
L 3244 0 
L 2466 0 
L 2466 481 
L 2434 481 
Q 2319 256 2066 92 
Q 1813 -72 1406 -72 
z
M 1616 531 
Q 1991 531 2214 747 
Q 2438 963 2438 1253 
L 2438 1666 
Q 2381 1622 2237 1589 
Q 2094 1556 1933 1532 
Q 1772 1509 1666 1494 
Q 1391 1456 1208 1343 
Q 1025 1231 1025 991 
Q 1025 766 1190 648 
Q 1356 531 1616 531 
z
" transform="scale(0.015625)"/>
      <path id="Inter-SemiBold-367" d="M 1753 -72 
Q 1150 -72 758 186 
Q 366 444 275 919 
L 1034 1063 
Q 1172 550 1769 550 
Q 2069 550 2245 670 
Q 2422 791 2422 969 
Q 2422 1266 1950 1369 
L 1353 1497 
Q 372 1709 372 2475 
Q 372 2800 550 3037 
Q 728 3275 1045 3406 
Q 1363 3538 1781 3538 
Q 2375 3538 2720 3291 
Q 3066 3044 3172 2638 
L 2447 2494 
Q 2384 2675 2228 2803 
Q 2072 2931 1791 2931 
Q 1534 2931 1359 2817 
Q 1184 2703 1184 2525 
Q 1184 2372 1298 2273 
Q 1413 2175 1681 2116 
L 2275 1991 
Q 3253 1781 3253 1047 
Q 3253 716 3062 464 
Q 2872 213 2533 70 
Q 2194 -72 1753 -72 
z
" transform="scale(0.015625)"/>
      <path id="Inter-SemiBold-29e" d="M 1244 2047 
L 1244 0 
L 431 0 
L 431 4656 
L 1231 4656 
L 1231 2847 
Q 1550 3538 2291 3538 
Q 2831 3538 3159 3194 
Q 3488 2850 3488 2222 
L 3488 0 
L 2672 0 
L 2672 2097 
Q 2672 2447 2490 2647 
Q 2309 2847 1991 2847 
Q 1666 2847 1455 2637 
Q 1244 2428 1244 2047 
z
" transform="scale(0.015625)"/>
      <path id="Inter-SemiBold-3e1" d="M 156 0 
L 1313 1794 
L 225 3494 
L 1119 3494 
L 1475 2900 
Q 1578 2722 1664 2551 
Q 1750 2381 1831 2219 
Q 1913 2381 1997 2553 
Q 2081 2725 2188 2900 
L 2556 3494 
L 3431 3494 
L 2325 1775 
L 3484 0 
L 2597 0 
L 2166 700 
Q 2063 872 1977 1039 
Q 1891 1206 1809 1366 
Q 1731 1206 1650 1039 
Q 1569 872 1466 700 
L 1034 0 
L 156 0 
z
" transform="scale(0.015625)"/>
      <path id="Inter-SemiBold-379" d="M 2047 3494 
L 2047 2856 
L 1372 2856 
L 1372 984 
Q 1372 794 1451 705 
Q 1531 616 1719 616 
Q 1775 616 1865 630 
Q 1956 644 2016 656 
L 2144 28 
Q 2009 -13 1868 -30 
Q 1728 -47 1600 -47 
Q 1097 -47 828 203 
Q 559 453 559 916 
L 559 2856 
L 63 2856 
L 63 3494 
L 559 3494 
L 559 4325 
L 1372 4325 
L 1372 3494 
L 2047 3494 
z
" transform="scale(0.015625)"/>
     </defs>
     <use xlink:href="#Inter-SemiBold-89"/>
     <use xlink:href="#Inter-SemiBold-2e0" transform="translate(58.796875 0)"/>
     <use xlink:href="#Inter-SemiBold-1fb" transform="translate(84.96875 0)"/>
     <use xlink:href="#Inter-SemiBold-367" transform="translate(142.390625 0)"/>
     <use xlink:href="#Inter-SemiBold-29e" transform="translate(197.328125 0)"/>
     <use xlink:href="#Inter-SemiBold-6f1" transform="translate(258.5625 0)"/>
     <use xlink:href="#Inter-SemiBold-12c" transform="translate(283.765625 0)"/>
     <use xlink:href="#Inter-SemiBold-266" transform="translate(359.6875 0)"/>
     <use xlink:href="#Inter-SemiBold-3e1" transform="translate(416.71875 0)"/>
     <use xlink:href="#Inter-SemiBold-379" transform="translate(475.21875 0)"/>
    </g>
   </g>
   <g id="text_5">
    <!-- Two NVIDIA DGX Sparks · TP=2 -->
    <g style="fill: #536558" transform="translate(42.48 204.48) scale(0.15 -0.15)">
     <defs>
      <path id="Inter-Regular-19b" d="M 306 4131 
L 306 4656 
L 3825 4656 
L 3825 4131 
L 2366 4131 
L 2366 0 
L 1772 0 
L 1772 4131 
L 306 4131 
z
" transform="scale(0.015625)"/>
      <path id="Inter-Regular-3d8" d="M 1278 0 
L 219 3494 
L 816 3494 
L 1241 1969 
Q 1316 1697 1403 1358 
Q 1491 1019 1575 603 
Q 1659 1003 1742 1340 
Q 1825 1678 1906 1969 
L 2325 3494 
L 2925 3494 
L 3338 1969 
Q 3413 1688 3495 1352 
Q 3578 1016 3659 613 
Q 3747 1013 3833 1348 
Q 3919 1684 3997 1969 
L 4422 3494 
L 5019 3494 
L 3959 0 
L 3400 0 
L 2947 1581 
Q 2859 1881 2779 2200 
Q 2700 2519 2619 2853 
Q 2541 2519 2458 2197 
Q 2375 1875 2291 1581 
L 1838 0 
L 1278 0 
z
" transform="scale(0.015625)"/>
      <path id="Inter-Regular-316" d="M 1916 -75 
Q 1441 -75 1083 150 
Q 725 375 525 781 
Q 325 1188 325 1725 
Q 325 2272 525 2680 
Q 725 3088 1083 3313 
Q 1441 3538 1916 3538 
Q 2394 3538 2753 3313 
Q 3113 3088 3313 2680 
Q 3513 2272 3513 1725 
Q 3513 1188 3313 781 
Q 3113 375 2753 150 
Q 2394 -75 1916 -75 
z
M 1916 428 
Q 2269 428 2497 609 
Q 2725 791 2834 1086 
Q 2944 1381 2944 1725 
Q 2944 2072 2834 2370 
Q 2725 2669 2497 2851 
Q 2269 3034 1916 3034 
Q 1566 3034 1341 2851 
Q 1116 2669 1006 2372 
Q 897 2075 897 1725 
Q 897 1381 1006 1086 
Q 1116 791 1341 609 
Q 1566 428 1916 428 
z
" transform="scale(0.015625)"/>
      <path id="Inter-Regular-12c" d="M 563 0 
L 563 4656 
L 1263 4656 
L 3156 1678 
Q 3250 1528 3398 1273 
Q 3547 1019 3706 703 
Q 3678 1041 3672 1327 
Q 3666 1613 3666 1800 
L 3666 4656 
L 4259 4656 
L 4259 0 
L 3553 0 
L 1866 2650 
Q 1759 2816 1654 2991 
Q 1550 3166 1422 3394 
Q 1294 3622 1113 3944 
Q 1131 3497 1145 3161 
Q 1159 2825 1159 2656 
L 1159 0 
L 563 0 
z
" transform="scale(0.015625)"/>
      <path id="Inter-Regular-1c8" d="M 1875 0 
L 163 4656 
L 788 4656 
L 1772 1894 
Q 1850 1678 1961 1329 
Q 2072 981 2219 481 
Q 2366 994 2477 1336 
Q 2588 1678 2663 1894 
L 3622 4656 
L 4253 4656 
L 2559 0 
L 1875 0 
z
" transform="scale(0.015625)"/>
      <path id="Inter-Regular-c5" d="M 1156 4656 
L 1156 0 
L 563 0 
L 563 4656 
L 1156 4656 
z
" transform="scale(0.015625)"/>
      <path id="Inter-Regular-8d" d="M 2466 -63 
Q 1844 -63 1375 228 
Q 906 519 643 1055 
Q 381 1591 381 2325 
Q 381 3066 643 3602 
Q 906 4138 1368 4428 
Q 1831 4719 2428 4719 
Q 2922 4719 3323 4526 
Q 3725 4334 3990 3992 
Q 4256 3650 4341 3197 
L 3728 3197 
Q 3584 3644 3254 3906 
Q 2925 4169 2431 4169 
Q 2022 4169 1687 3958 
Q 1353 3747 1156 3336 
Q 959 2925 959 2325 
Q 959 1731 1157 1322 
Q 1356 913 1697 700 
Q 2038 488 2466 488 
Q 2853 488 3150 650 
Q 3447 813 3617 1113 
Q 3788 1413 3794 1822 
L 2588 1822 
L 2588 2341 
L 4375 2341 
L 4375 1831 
Q 4375 1253 4128 828 
Q 3881 403 3451 170 
Q 3022 -63 2466 -63 
z
" transform="scale(0.015625)"/>
      <path id="Inter-Regular-1d2" d="M 178 0 
L 1847 2384 
L 281 4656 
L 969 4656 
L 1641 3669 
Q 1778 3469 1868 3328 
Q 1959 3188 2032 3058 
Q 2106 2928 2191 2766 
Q 2272 2928 2347 3058 
Q 2422 3188 2514 3328 
Q 2606 3469 2744 3669 
L 3428 4656 
L 4100 4656 
L 2534 2406 
L 4188 0 
L 3503 0 
L 2688 1181 
Q 2513 1438 2406 1605 
Q 2300 1772 2184 2000 
Q 2072 1778 1962 1608 
Q 1853 1438 1675 1181 
L 853 0 
L 178 0 
z
" transform="scale(0.015625)"/>
      <path id="Inter-Regular-34b" d="M 494 -1306 
L 494 3494 
L 1038 3494 
L 1038 2934 
L 1100 2934 
Q 1159 3028 1265 3170 
Q 1372 3313 1572 3425 
Q 1772 3538 2113 3538 
Q 2550 3538 2883 3319 
Q 3216 3100 3405 2695 
Q 3594 2291 3594 1738 
Q 3594 1181 3406 775 
Q 3219 369 2886 147 
Q 2553 -75 2116 -75 
Q 1784 -75 1581 39 
Q 1378 153 1268 298 
Q 1159 444 1100 541 
L 1056 541 
L 1056 -1306 
L 494 -1306 
z
M 2031 428 
Q 2359 428 2579 604 
Q 2800 781 2911 1079 
Q 3022 1378 3022 1744 
Q 3022 2106 2912 2398 
Q 2803 2691 2583 2862 
Q 2363 3034 2031 3034 
Q 1550 3034 1300 2678 
Q 1050 2322 1050 1744 
Q 1050 1159 1303 793 
Q 1556 428 2031 428 
z
" transform="scale(0.015625)"/>
      <path id="Inter-Regular-1fb" d="M 1472 -81 
Q 1141 -81 870 44 
Q 600 169 440 409 
Q 281 650 281 994 
Q 281 1294 400 1481 
Q 519 1669 717 1776 
Q 916 1884 1156 1937 
Q 1397 1991 1641 2022 
Q 1953 2063 2150 2084 
Q 2347 2106 2442 2159 
Q 2538 2213 2538 2341 
L 2538 2359 
Q 2538 2684 2353 2864 
Q 2169 3044 1806 3044 
Q 1428 3044 1215 2880 
Q 1003 2716 922 2531 
L 381 2709 
Q 516 3028 744 3208 
Q 972 3388 1247 3463 
Q 1522 3538 1791 3538 
Q 1966 3538 2189 3495 
Q 2413 3453 2620 3328 
Q 2828 3203 2964 2958 
Q 3100 2713 3100 2303 
L 3100 0 
L 2547 0 
L 2547 475 
L 2509 475 
Q 2450 353 2319 223 
Q 2188 94 1978 6 
Q 1769 -81 1472 -81 
z
M 1569 416 
Q 1881 416 2097 537 
Q 2313 659 2425 854 
Q 2538 1050 2538 1263 
L 2538 1747 
Q 2503 1706 2387 1673 
Q 2272 1641 2123 1616 
Q 1975 1591 1836 1573 
Q 1697 1556 1616 1547 
Q 1413 1522 1236 1461 
Q 1059 1400 953 1283 
Q 847 1166 847 966 
Q 847 694 1051 555 
Q 1256 416 1569 416 
z
" transform="scale(0.015625)"/>
      <path id="Inter-Regular-354" d="M 494 0 
L 494 3494 
L 1038 3494 
L 1038 2956 
L 1075 2956 
Q 1172 3222 1420 3383 
Q 1669 3544 1981 3544 
Q 2044 3544 2130 3541 
Q 2216 3538 2266 3534 
L 2266 2969 
Q 2241 2975 2141 2987 
Q 2041 3000 1928 3000 
Q 1550 3000 1303 2770 
Q 1056 2541 1056 2188 
L 1056 0 
L 494 0 
z
" transform="scale(0.015625)"/>
      <path id="Inter-Regular-2d7" d="M 494 0 
L 494 4656 
L 1056 4656 
L 1056 1953 
L 1125 1953 
L 2619 3494 
L 3316 3494 
L 1853 1994 
L 3425 0 
L 2703 0 
L 1425 1634 
L 1056 1288 
L 1056 0 
L 494 0 
z
" transform="scale(0.015625)"/>
      <path id="Inter-Regular-367" d="M 1681 -75 
Q 1144 -75 787 159 
Q 431 394 338 847 
L 872 975 
Q 947 688 1155 553 
Q 1363 419 1675 419 
Q 2041 419 2258 575 
Q 2475 731 2475 947 
Q 2475 1306 1963 1428 
L 1381 1566 
Q 444 1788 444 2519 
Q 444 2819 612 3048 
Q 781 3278 1073 3408 
Q 1366 3538 1738 3538 
Q 2278 3538 2576 3302 
Q 2875 3066 2994 2697 
L 2484 2566 
Q 2413 2753 2245 2906 
Q 2078 3059 1741 3059 
Q 1428 3059 1220 2915 
Q 1013 2772 1013 2553 
Q 1013 2359 1153 2242 
Q 1294 2125 1600 2053 
L 2128 1928 
Q 2603 1816 2831 1580 
Q 3059 1344 3059 984 
Q 3059 678 2886 439 
Q 2713 200 2402 62 
Q 2091 -75 1681 -75 
z
" transform="scale(0.015625)"/>
      <path id="Inter-Regular-5e5" d="M 922 1790 
Q 747 1790 623 1913 
Q 500 2037 500 2212 
Q 500 2387 623 2510 
Q 747 2634 922 2634 
Q 1097 2634 1220 2510 
Q 1344 2387 1344 2212 
Q 1344 2037 1220 1913 
Q 1097 1790 922 1790 
z
" transform="scale(0.015625)"/>
      <path id="Inter-Regular-5fd" d="M 706 1393 
L 706 1912 
L 3531 1912 
L 3531 1393 
L 706 1393 
z
M 706 2750 
L 706 3268 
L 3531 3268 
L 3531 2750 
L 706 2750 
z
" transform="scale(0.015625)"/>
     </defs>
     <use xlink:href="#Inter-Regular-19b"/>
     <use xlink:href="#Inter-Regular-3d8" transform="translate(58.296875 0)"/>
     <use xlink:href="#Inter-Regular-316" transform="translate(138.328125 0)"/>
     <use xlink:href="#Inter-Regular-6f1" transform="translate(198.296875 0)"/>
     <use xlink:href="#Inter-Regular-12c" transform="translate(226.421875 0)"/>
     <use xlink:href="#Inter-Regular-1c8" transform="translate(301.765625 0)"/>
     <use xlink:href="#Inter-Regular-c5" transform="translate(370.765625 0)"/>
     <use xlink:href="#Inter-Regular-54" transform="translate(397.625 0)"/>
     <use xlink:href="#Inter-Regular-c5" transform="translate(469.796875 0)"/>
     <use xlink:href="#Inter-Regular-2" transform="translate(496.65625 0)"/>
     <use xlink:href="#Inter-Regular-6f1" transform="translate(565.65625 0)"/>
     <use xlink:href="#Inter-Regular-54" transform="translate(593.78125 0)"/>
     <use xlink:href="#Inter-Regular-8d" transform="translate(665.953125 0)"/>
     <use xlink:href="#Inter-Regular-1d2" transform="translate(740.03125 0)"/>
     <use xlink:href="#Inter-Regular-6f1" transform="translate(808.25 0)"/>
     <use xlink:href="#Inter-Regular-18d" transform="translate(836.375 0)"/>
     <use xlink:href="#Inter-Regular-34b" transform="translate(900.53125 0)"/>
     <use xlink:href="#Inter-Regular-1fb" transform="translate(962.75 0)"/>
     <use xlink:href="#Inter-Regular-354" transform="translate(1018.90625 0)"/>
     <use xlink:href="#Inter-Regular-2d7" transform="translate(1058.109375 0)"/>
     <use xlink:href="#Inter-Regular-367" transform="translate(1113 0)"/>
     <use xlink:href="#Inter-Regular-6f1" transform="translate(1165.78125 0)"/>
     <use xlink:href="#Inter-Regular-5e5" transform="translate(1193.90625 0)"/>
     <use xlink:href="#Inter-Regular-6f1" transform="translate(1222.71875 0)"/>
     <use xlink:href="#Inter-Regular-19b" transform="translate(1250.84375 0)"/>
     <use xlink:href="#Inter-Regular-177" transform="translate(1315.390625 0)"/>
     <use xlink:href="#Inter-Regular-5fd" transform="translate(1379.265625 0)"/>
     <use xlink:href="#Inter-Regular-53f" transform="translate(1445.421875 0)"/>
    </g>
   </g>
   <g id="text_6">
    <!-- DGX -->
    <g style="fill: #17251d" transform="translate(594.56625 115.980312) scale(0.16 -0.16)">
     <defs>
      <path id="Inter-SemiBold-54" d="M 2044 0 
L 469 0 
L 469 4656 
L 2075 4656 
Q 2769 4656 3267 4376 
Q 3766 4097 4031 3576 
Q 4297 3056 4297 2334 
Q 4297 1606 4030 1082 
Q 3763 559 3258 279 
Q 2753 0 2044 0 
z
M 1303 722 
L 2003 722 
Q 3475 722 3475 2334 
Q 3475 3934 2025 3934 
L 1303 3934 
L 1303 722 
z
" transform="scale(0.015625)"/>
      <path id="Inter-SemiBold-8d" d="M 2478 -63 
Q 1834 -63 1350 226 
Q 866 516 594 1052 
Q 322 1588 322 2322 
Q 322 3072 601 3608 
Q 881 4144 1362 4431 
Q 1844 4719 2453 4719 
Q 2966 4719 3383 4522 
Q 3800 4325 4070 3975 
Q 4341 3625 4413 3169 
L 3559 3169 
Q 3447 3541 3167 3756 
Q 2888 3972 2463 3972 
Q 2088 3972 1792 3781 
Q 1497 3591 1328 3223 
Q 1159 2856 1159 2328 
Q 1159 1538 1526 1111 
Q 1894 684 2481 684 
Q 3006 684 3318 979 
Q 3631 1275 3644 1778 
L 2569 1778 
L 2569 2434 
L 4453 2434 
L 4453 1875 
Q 4453 1278 4198 842 
Q 3944 406 3498 171 
Q 3053 -63 2478 -63 
z
" transform="scale(0.015625)"/>
      <path id="Inter-SemiBold-1d2" d="M 166 0 
L 1838 2381 
L 300 4656 
L 1266 4656 
L 1831 3806 
Q 2006 3538 2107 3345 
Q 2209 3153 2313 2950 
Q 2416 3150 2519 3344 
Q 2622 3538 2800 3806 
L 3375 4656 
L 4319 4656 
L 2791 2409 
L 4441 0 
L 3459 0 
L 2753 1044 
Q 2588 1294 2495 1455 
Q 2403 1616 2303 1803 
Q 2203 1619 2109 1456 
Q 2016 1294 1844 1044 
L 1125 0 
L 166 0 
z
" transform="scale(0.015625)"/>
     </defs>
     <use xlink:href="#Inter-SemiBold-54"/>
     <use xlink:href="#Inter-SemiBold-8d" transform="translate(72.21875 0)"/>
     <use xlink:href="#Inter-SemiBold-1d2" transform="translate(145.953125 0)"/>
    </g>
   </g>
   <g id="text_7">
    <!-- SPARK 01 -->
    <g style="fill: #536558" transform="translate(589.345312 179.28) scale(0.1 -0.1)">
     <defs>
      <path id="Inter-Regular-53e" d="M 2041 4656 
L 2041 0 
L 1456 0 
L 1456 4106 
L 1425 4106 
L 300 3272 
L 300 3909 
L 1313 4656 
L 2041 4656 
z
" transform="scale(0.015625)"/>
     </defs>
     <use xlink:href="#Inter-Regular-18d"/>
     <use xlink:href="#Inter-Regular-177" transform="translate(64.15625 0)"/>
     <use xlink:href="#Inter-Regular-2" transform="translate(120.65625 0)"/>
     <use xlink:href="#Inter-Regular-180" transform="translate(189.65625 0)"/>
     <use xlink:href="#Inter-Regular-10f" transform="translate(254.015625 0)"/>
     <use xlink:href="#Inter-Regular-6f1" transform="translate(321.203125 0)"/>
     <use xlink:href="#Inter-Regular-53d" transform="translate(349.328125 0)"/>
     <use xlink:href="#Inter-Regular-53e" transform="translate(412.421875 0)"/>
    </g>
   </g>
   <g id="text_8">
    <!-- DGX -->
    <g style="fill: #17251d" transform="translate(724.16625 115.980312) scale(0.16 -0.16)">
     <use xlink:href="#Inter-SemiBold-54"/>
     <use xlink:href="#Inter-SemiBold-8d" transform="translate(72.21875 0)"/>
     <use xlink:href="#Inter-SemiBold-1d2" transform="translate(145.953125 0)"/>
    </g>
   </g>
   <g id="text_9">
    <!-- SPARK 02 -->
    <g style="fill: #536558" transform="translate(717.929688 179.28) scale(0.1 -0.1)">
     <use xlink:href="#Inter-Regular-18d"/>
     <use xlink:href="#Inter-Regular-177" transform="translate(64.15625 0)"/>
     <use xlink:href="#Inter-Regular-2" transform="translate(120.65625 0)"/>
     <use xlink:href="#Inter-Regular-180" transform="translate(189.65625 0)"/>
     <use xlink:href="#Inter-Regular-10f" transform="translate(254.015625 0)"/>
     <use xlink:href="#Inter-Regular-6f1" transform="translate(321.203125 0)"/>
     <use xlink:href="#Inter-Regular-53d" transform="translate(349.328125 0)"/>
     <use xlink:href="#Inter-Regular-53f" transform="translate(412.421875 0)"/>
    </g>
   </g>
   <g id="text_10">
    <!-- vLLM  /  NVFP4  /  MTP -->
    <g style="fill: #536558" transform="translate(42.48 252) scale(0.12 -0.12)">
     <defs>
      <path id="Inter-Regular-3d4" d="M 1503 0 
L 169 3494 
L 784 3494 
L 1528 1422 
Q 1609 1194 1675 967 
Q 1741 741 1800 522 
Q 1859 741 1923 967 
Q 1988 1194 2069 1422 
L 2813 3494 
L 3428 3494 
L 2094 0 
L 1503 0 
z
" transform="scale(0.015625)"/>
      <path id="Inter-Regular-124" d="M 563 0 
L 563 4656 
L 1406 4656 
L 2553 1719 
Q 2619 1550 2716 1247 
Q 2813 944 2897 659 
Q 2978 934 3075 1239 
Q 3172 1544 3241 1719 
L 4372 4656 
L 5219 4656 
L 5219 0 
L 4634 0 
L 4634 2659 
Q 4634 2916 4640 3287 
Q 4647 3659 4656 4022 
Q 4528 3622 4398 3244 
Q 4269 2866 4188 2659 
L 3147 0 
L 2631 0 
L 1575 2659 
Q 1497 2856 1370 3229 
Q 1244 3603 1106 4013 
Q 1113 3681 1120 3304 
Q 1128 2928 1128 2659 
L 1128 0 
L 563 0 
z
" transform="scale(0.015625)"/>
      <path id="Inter-Regular-89" d="M 563 0 
L 563 4656 
L 3378 4656 
L 3378 4131 
L 1156 4131 
L 1156 2538 
L 3166 2538 
L 3166 2013 
L 1156 2013 
L 1156 0 
L 563 0 
z
" transform="scale(0.015625)"/>
      <path id="Inter-Regular-542" d="M 375 947 
L 375 1431 
L 2413 4656 
L 3134 4656 
L 3134 1469 
L 3766 1469 
L 3766 947 
L 3134 947 
L 3134 0 
L 2566 0 
L 2566 947 
L 375 947 
z
M 2569 1469 
L 2569 3913 
L 2531 3913 
L 1009 1506 
L 1009 1469 
L 2569 1469 
z
" transform="scale(0.015625)"/>
     </defs>
     <use xlink:href="#Inter-Regular-3d4"/>
     <use xlink:href="#Inter-Regular-119" transform="translate(56.6875 0)"/>
     <use xlink:href="#Inter-Regular-119" transform="translate(113.234375 0)"/>
     <use xlink:href="#Inter-Regular-124" transform="translate(169.78125 0)"/>
     <use xlink:href="#Inter-Regular-6f1" transform="translate(260.109375 0)"/>
     <use xlink:href="#Inter-Regular-6f1" transform="translate(288.234375 0)"/>
     <use xlink:href="#Inter-Regular-5af" transform="translate(316.359375 0)"/>
     <use xlink:href="#Inter-Regular-6f1" transform="translate(352.390625 0)"/>
     <use xlink:href="#Inter-Regular-6f1" transform="translate(380.515625 0)"/>
     <use xlink:href="#Inter-Regular-12c" transform="translate(408.640625 0)"/>
     <use xlink:href="#Inter-Regular-1c8" transform="translate(483.984375 0)"/>
     <use xlink:href="#Inter-Regular-89" transform="translate(552.984375 0)"/>
     <use xlink:href="#Inter-Regular-177" transform="translate(612.015625 0)"/>
     <use xlink:href="#Inter-Regular-542" transform="translate(675.890625 0)"/>
     <use xlink:href="#Inter-Regular-6f1" transform="translate(740.484375 0)"/>
     <use xlink:href="#Inter-Regular-6f1" transform="translate(768.609375 0)"/>
     <use xlink:href="#Inter-Regular-5af" transform="translate(796.734375 0)"/>
     <use xlink:href="#Inter-Regular-6f1" transform="translate(832.765625 0)"/>
     <use xlink:href="#Inter-Regular-6f1" transform="translate(860.890625 0)"/>
     <use xlink:href="#Inter-Regular-124" transform="translate(889.015625 0)"/>
     <use xlink:href="#Inter-Regular-19b" transform="translate(979.34375 0)"/>
     <use xlink:href="#Inter-Regular-177" transform="translate(1043.890625 0)"/>
    </g>
   </g>
   <g id="text_11">
    <!-- RELEASE v2.0.0 -->
    <g style="fill: #536558" transform="translate(733.689375 252) scale(0.12 -0.12)">
     <defs>
      <path id="Inter-Regular-5f" d="M 563 0 
L 563 4656 
L 3400 4656 
L 3400 4131 
L 1156 4131 
L 1156 2613 
L 3247 2613 
L 3247 2088 
L 1156 2088 
L 1156 525 
L 3428 525 
L 3428 0 
L 563 0 
z
" transform="scale(0.015625)"/>
      <path id="Inter-Regular-5de" d="M 922 -41 
Q 747 -41 623 82 
Q 500 206 500 381 
Q 500 556 623 679 
Q 747 803 922 803 
Q 1097 803 1220 679 
Q 1344 556 1344 381 
Q 1344 206 1220 82 
Q 1097 -41 922 -41 
z
" transform="scale(0.015625)"/>
     </defs>
     <use xlink:href="#Inter-Regular-180"/>
     <use xlink:href="#Inter-Regular-5f" transform="translate(64.359375 0)"/>
     <use xlink:href="#Inter-Regular-119" transform="translate(124.46875 0)"/>
     <use xlink:href="#Inter-Regular-5f" transform="translate(181.015625 0)"/>
     <use xlink:href="#Inter-Regular-2" transform="translate(241.125 0)"/>
     <use xlink:href="#Inter-Regular-18d" transform="translate(310.125 0)"/>
     <use xlink:href="#Inter-Regular-5f" transform="translate(374.28125 0)"/>
     <use xlink:href="#Inter-Regular-6f1" transform="translate(434.390625 0)"/>
     <use xlink:href="#Inter-Regular-3d4" transform="translate(462.515625 0)"/>
     <use xlink:href="#Inter-Regular-53f" transform="translate(518.71875 0)"/>
     <use xlink:href="#Inter-Regular-5de" transform="translate(579.703125 0)"/>
     <use xlink:href="#Inter-Regular-53d" transform="translate(605.984375 0)"/>
     <use xlink:href="#Inter-Regular-5de" transform="translate(666.546875 0)"/>
     <use xlink:href="#Inter-Regular-53d" transform="translate(692.828125 0)"/>
    </g>
   </g>
  </g>
 </g>
 <defs>
  <clipPath id="p99c257931c">
   <rect x="0" y="0" width="864" height="273.6"/>
  </clipPath>
 </defs>
</svg>
